<?xml version="1.0" encoding="UTF-8" standalone="no"?>
<svg
   xmlns:dc="http://purl.org/dc/elements/1.1/"
   xmlns:cc="http://creativecommons.org/ns#"
   xmlns:rdf="http://www.w3.org/1999/02/22-rdf-syntax-ns#"
   xmlns:svg="http://www.w3.org/2000/svg"
   xmlns="http://www.w3.org/2000/svg"
   xmlns:xlink="http://www.w3.org/1999/xlink"
   xmlns:sodipodi="http://sodipodi.sourceforge.net/DTD/sodipodi-0.dtd"
   xmlns:inkscape="http://www.inkscape.org/namespaces/inkscape"
   width="163.10127mm"
   height="133.79945mm"
   viewBox="0 0 163.10127 133.79946"
   version="1.1"
   id="svg8"
   inkscape:version="1.0.2 (1.0.2+r75+1)"
   sodipodi:docname="adiabatic.svg">
  <defs
     id="defs2">
    <marker
       style="overflow:visible"
       id="marker1767"
       refX="0"
       refY="0"
       orient="auto"
       inkscape:stockid="Arrow2Lend"
       inkscape:isstock="true">
      <path
         transform="matrix(-1.1,0,0,-1.1,-1.1,0)"
         d="M 8.7185878,4.0337352 -2.2072895,0.01601326 8.7185884,-4.0017078 c -1.7454984,2.3720609 -1.7354408,5.6174519 -6e-7,8.035443 z"
         style="fill:#ffffff;fill-opacity:1;fill-rule:evenodd;stroke:#ffffff;stroke-width:0.625;stroke-linejoin:round;stroke-opacity:1"
         id="path1765" />
    </marker>
    <marker
       style="overflow:visible"
       id="Arrow2Lend"
       refX="0"
       refY="0"
       orient="auto"
       inkscape:stockid="Arrow2Lend"
       inkscape:isstock="true">
      <path
         transform="matrix(-1.1,0,0,-1.1,-1.1,0)"
         d="M 8.7185878,4.0337352 -2.2072895,0.01601326 8.7185884,-4.0017078 c -1.7454984,2.3720609 -1.7354408,5.6174519 -6e-7,8.035443 z"
         style="fill:#ffffff;fill-opacity:1;fill-rule:evenodd;stroke:#ffffff;stroke-width:0.625;stroke-linejoin:round;stroke-opacity:1"
         id="path1054" />
    </marker>
    <marker
       style="overflow:visible"
       id="marker1533"
       refX="0"
       refY="0"
       orient="auto"
       inkscape:stockid="Arrow2Lstart"
       inkscape:isstock="true">
      <path
         transform="matrix(1.1,0,0,1.1,1.1,0)"
         d="M 8.7185878,4.0337352 -2.2072895,0.01601326 8.7185884,-4.0017078 c -1.7454984,2.3720609 -1.7354408,5.6174519 -6e-7,8.035443 z"
         style="fill:#ffffff;fill-opacity:1;fill-rule:evenodd;stroke:#ffffff;stroke-width:0.625;stroke-linejoin:round;stroke-opacity:1"
         id="path1531" />
    </marker>
    <marker
       style="overflow:visible"
       id="marker1493"
       refX="0"
       refY="0"
       orient="auto"
       inkscape:stockid="Arrow2Lstart"
       inkscape:isstock="true">
      <path
         transform="matrix(1.1,0,0,1.1,1.1,0)"
         d="M 8.7185878,4.0337352 -2.2072895,0.01601326 8.7185884,-4.0017078 c -1.7454984,2.3720609 -1.7354408,5.6174519 -6e-7,8.035443 z"
         style="fill:#ffffff;fill-opacity:1;fill-rule:evenodd;stroke:#ffffff;stroke-width:0.625;stroke-linejoin:round;stroke-opacity:1"
         id="path1491" />
    </marker>
    <marker
       style="overflow:visible"
       id="marker1459"
       refX="0"
       refY="0"
       orient="auto"
       inkscape:stockid="Arrow2Lstart"
       inkscape:isstock="true">
      <path
         transform="matrix(1.1,0,0,1.1,1.1,0)"
         d="M 8.7185878,4.0337352 -2.2072895,0.01601326 8.7185884,-4.0017078 c -1.7454984,2.3720609 -1.7354408,5.6174519 -6e-7,8.035443 z"
         style="fill:#ffffff;fill-opacity:1;fill-rule:evenodd;stroke:#ffffff;stroke-width:0.625;stroke-linejoin:round;stroke-opacity:1"
         id="path1457" />
    </marker>
    <marker
       style="overflow:visible"
       id="Arrow2Lstart"
       refX="0"
       refY="0"
       orient="auto"
       inkscape:stockid="Arrow2Lstart"
       inkscape:isstock="true">
      <path
         transform="matrix(1.1,0,0,1.1,1.1,0)"
         d="M 8.7185878,4.0337352 -2.2072895,0.01601326 8.7185884,-4.0017078 c -1.7454984,2.3720609 -1.7354408,5.6174519 -6e-7,8.035443 z"
         style="fill:#ffffff;fill-opacity:1;fill-rule:evenodd;stroke:#feffff;stroke-width:0.625;stroke-linejoin:round;stroke-opacity:1"
         id="path1051" />
    </marker>
    <marker
       style="overflow:visible"
       id="Arrow1Lstart"
       refX="0"
       refY="0"
       orient="auto"
       inkscape:stockid="Arrow1Lstart"
       inkscape:isstock="true">
      <path
         transform="matrix(0.8,0,0,0.8,10,0)"
         style="fill:#ffffff;fill-opacity:1;fill-rule:evenodd;stroke:#feffff;stroke-width:1pt;stroke-opacity:1"
         d="M 0,0 5,-5 -12.5,0 5,5 Z"
         id="path1033" />
    </marker>
    <style
       type="text/css"
       id="style836">*{stroke-linecap:butt;stroke-linejoin:round;}</style>
    <path
       d="m 3.515625,62.3125 v 6.578125 H 64.3125 V 62.3125 H 50.09375 L 38.375,62.40625 V 0 H 29.5 V 62.40625 L 17.671875,62.3125 Z"
       id="CMUSansSerif-84" />
    <path
       d="m 7.421875,58.984375 v 8.9375 h 8.984375 v -8.9375 z M 8.109375,0 v 44.484375 h 7.46875 V 0 Z"
       id="CMUSansSerif-105" />
    <path
       d="m 3.421875,22.609375 q 0,9.90625 6.03125,16.6875 6.03125,6.796875 14.125,6.796875 2.984375,0 5.6875,-0.953125 2.71875,-0.953125 5.46875,-3.15625 2.765625,-2.1875 4.5625,-6.59375 Q 41.109375,31 41.40625,24.90625 v -2.890625 h -31 Q 10.6875,14.5 14.984375,9.78125 19.28125,5.078125 25.203125,5.078125 q 7.609375,0 15.171875,5.515625 L 41.015625,4 q -7.609375,-5.078125 -15.8125,-5.125 -9.53125,0 -15.65625,7.046875 -6.125,7.0625 -6.125,16.6875 z m 7.46875,4.875 H 35.6875 q -0.578125,3.90625 -2.140625,6.609375 -1.5625,2.71875 -3.515625,3.859375 -1.953125,1.15625 -3.5,1.546875 -1.53125,0.390625 -2.953125,0.390625 -5.078125,0 -8.40625,-3.90625 -3.3125,-3.90625 -4.28125,-8.5 z"
       id="CMUSansSerif-101" />
    <path
       d="m 8.015625,0 v 45.015625 h 7.265625 v -7.03125 q 5.8125,7.53125 14.609375,7.53125 9.703125,0 12.6875,-8.109375 6.109375,8.109375 15.140625,8.109375 3.8125,0 6.546875,-1.25 2.734375,-1.25 4.0625,-2.90625 1.34375,-1.65625 2.09375,-4.25 0.765625,-2.59375 0.859375,-4.25 0.109375,-1.65625 0.109375,-4.046875 V 0 h -7.90625 v 28.078125 q 0,0.1875 0,0.609375 0,0.421875 -0.203125,1.609375 -0.1875,1.203125 -0.53125,2.25 -0.34375,1.046875 -1.0625,2.34375 -0.703125,1.296875 -1.703125,2.25 -1,0.953125 -2.59375,1.609375 -1.578125,0.65625 -3.578125,0.65625 -5.328125,0 -7.765625,-4.5 -2.4375,-4.484375 -2.4375,-10.875 V 0 h -7.8125 v 28.078125 q 0,1.703125 -0.0625,2.703125 -0.04687,1 -0.578125,2.859375 Q 34.625,35.5 33.671875,36.59375 q -0.953125,1.109375 -2.90625,1.953125 -1.953125,0.859375 -4.78125,0.859375 -5.328125,0 -7.75,-4.5 -2.40625,-4.484375 -2.40625,-10.875 V 0 Z"
       id="CMUSansSerif-109" />
    <path
       d="m 8.109375,-19.484375 v 63.96875 h 7.46875 V 39.59375 q 7.328125,5.921875 16.59375,5.921875 6.890625,0 11.359375,-6.921875 Q 48,31.6875 48,22.40625 48,12.109375 42.453125,5.484375 36.921875,-1.125 29.390625,-1.125 q -7.421875,0 -13.46875,5.71875 v -24.078125 z m 7.8125,32.078125 q 0,-2.1875 2.828125,-4.90625 2.828125,-2.703125 6.84375,-2.703125 5.609375,0 10.046875,4.796875 4.453125,4.8125 4.453125,12.4375 0,6.78125 -3.796875,11.828125 -3.78125,5.0625 -9.78125,5.0625 -1.125,0 -2.125,-0.15625 -1,-0.140625 -1.859375,-0.5 Q 21.6875,38.09375 20.953125,37.75 20.21875,37.40625 19.546875,36.96875 18.890625,36.53125 18.40625,36.109375 17.921875,35.6875 17.453125,35.203125 17,34.71875 16.75,34.390625 16.5,34.078125 16.21875,33.796875 L 15.921875,33.40625 Z"
       id="CMUSansSerif-112" />
    <path
       d="m 2.984375,22.125 q 0,10.109375 6.46875,17.03125 6.46875,6.9375 15.453125,6.9375 9.421875,0 15.71875,-7.25 6.296875,-7.25 6.296875,-16.828125 0,-9.90625 -6.625,-16.53125 Q 33.6875,-1.125 24.890625,-1.125 q -8.78125,0 -15.34375,6.65625 -6.5625,6.671875 -6.5625,16.59375 z m 7.8125,0.96875 q 0,-8.78125 4.234375,-13.28125 4.25,-4.484375 9.859375,-4.484375 5.625,0 9.875,4.53125 4.25,4.546875 4.25,13.234375 0,8.40625 -4.25,12.59375 -4.25,4.203125 -9.859375,4.203125 -5.515625,0 -9.8125,-4.203125 Q 10.796875,31.5 10.796875,23.09375 Z"
       id="CMUSansSerif-111" />
    <path
       d="m 9.421875,0 v 69.09375 h 44.6875 V 62.5 h -5.71875 L 45.90625,62.59375 H 21.921875 l -3.515625,0.109375 v -23.6875 H 51.421875 V 32.90625 H 18.40625 V 6.984375 h 8.5 l 2.390625,0.09375 H 48.6875 l 2.1875,0.09375 h 4.640625 V 0 Z"
       id="CMUSansSerif-69" />
    <path
       d="m 8.015625,0 v 45.015625 h 7.265625 v -7.03125 q 5.8125,7.53125 14.609375,7.53125 3.703125,0 6.359375,-1.109375 2.671875,-1.09375 4.0625,-2.703125 1.390625,-1.609375 2.140625,-4.0625 0.765625,-2.4375 0.953125,-4.34375 0.203125,-1.90625 0.203125,-4.484375 V 0 h -7.8125 v 28.078125 q 0,1.703125 -0.0625,2.703125 -0.04687,1 -0.578125,2.859375 Q 34.625,35.5 33.671875,36.59375 q -0.953125,1.109375 -2.90625,1.953125 -1.953125,0.859375 -4.78125,0.859375 -5.328125,0 -7.75,-4.5 -2.40625,-4.484375 -2.40625,-10.875 V 0 Z"
       id="CMUSansSerif-110" />
    <path
       d="m 8.109375,0 v 45.015625 h 6.984375 v -9.03125 q 1.21875,1.90625 2.890625,3.65625 1.6875,1.765625 5.734375,3.765625 4.0625,2 8.90625,2.109375 V 38.8125 q -2.59375,-0.09375 -5.203125,-0.953125 -2.609375,-0.84375 -5.46875,-2.703125 -2.859375,-1.859375 -4.625,-5.671875 -1.75,-3.796875 -1.75,-8.875 V 0 Z"
       id="CMUSansSerif-114" />
    <path
       d="m 2.6875,-7.078125 q 0,6.484375 6.390625,10.296875 -2.484375,3.625 -2.484375,7.578125 0,4.484375 2.921875,8.390625 v 0.09375 q -3.3125,4.296875 -3.3125,9.921875 0,7.078125 4.75,11.6875 4.765625,4.625 11.171875,4.625 5.078125,0 9.765625,-3.328125 L 31.6875,42.390625 q 7.421875,3.0625 15.71875,3.125 l 1.078125,-6.3125 Q 45.515625,39.5 42.578125,39.5 q -0.296875,0 -7.46875,-0.390625 l -0.921875,0.78125 q 3.90625,-5.3125 3.90625,-10.6875 0,-6.5 -4.59375,-11.40625 -4.59375,-4.90625 -11.375,-4.90625 -4.40625,0 -9.140625,3.03125 -1.125,-2.203125 -1.0625,-3.71875 0,-2 1.1875,-3.65625 1.203125,-1.65625 4.375,-1.65625 H 25 q 3.515625,0 5.953125,-0.25 2.453125,-0.25 6.109375,-1.109375 3.65625,-0.84375 6.09375,-3.09375 2.453125,-2.234375 3.421875,-5.765625 0.5,-2 0.546875,-3.65625 0,-5.8125 -6.53125,-9.71875 -6.515625,-3.90625 -15.6875,-3.90625 -9.28125,0 -15.75,3.90625 -6.46875,3.90625 -6.46875,9.625 z m 7.03125,0 q 0,-2.59375 2.6875,-4.4375 2.6875,-1.859375 5.984375,-2.609375 3.296875,-0.765625 6.421875,-0.765625 6.296875,0 10.78125,2.15625 4.5,2.140625 4.5,5.5625 0,6.875 -14.890625,6.875 h -6.3125 l -2.875,-0.09375 q -2.875,-0.296875 -4.59375,-2.296875 -1.703125,-2 -1.703125,-4.390625 z m 3.46875,36.28125 q 0,-4.78125 2.453125,-7.640625 2.46875,-2.859375 6.578125,-2.859375 3.421875,0 6.15625,2.4375 2.734375,2.4375 2.734375,8.15625 0,4.78125 -2.453125,7.640625 -2.4375,2.859375 -6.53125,2.859375 -3.421875,0 -6.1875,-2.453125 -2.75,-2.4375 -2.75,-8.140625 z"
       id="CMUSansSerif-103" />
    <path
       d="M 3.171875,50.984375 16.5,64.015625 h 7.765625 L 9.375,50.984375 Z M 8.109375,0 v 44.484375 h 7.46875 V 0 Z"
       id="CMUSansSerif-237" />
    <path
       d="m 4.390625,11.28125 q 0,3.703125 2.8125,6.46875 2.8125,2.765625 7.34375,4.09375 4.546875,1.34375 8.890625,2 4.34375,0.671875 8.734375,0.671875 V 27.875 q -0.1875,6.40625 -2.578125,9.234375 -2.5,2.984375 -6.296875,2.984375 -7.71875,0 -15,-5.078125 l -0.578125,6.6875 q 7.515625,4.390625 15.671875,4.390625 6.890625,0 11.546875,-4.546875 4.65625,-4.53125 5.046875,-11.03125 V 0 h -7.5625 V 3.515625 Q 32.03125,3.125 30.5625,2.21875 29.109375,1.3125 24.90625,0.09375 20.703125,-1.125 15.828125,-1.125 10.109375,-1.125 7.25,2.921875 4.390625,6.984375 4.390625,11.28125 Z M 11.71875,11.375 q 0,-2.6875 2.640625,-4.5 Q 17,5.078125 21,5.078125 q 4.296875,0 7.734375,1.796875 3.4375,1.8125 3.4375,6.109375 v 6.296875 q -3.0625,0 -6.265625,-0.390625 Q 22.703125,18.5 19.3125,17.6875 15.921875,16.890625 13.8125,15.234375 11.71875,13.578125 11.71875,11.375 Z"
       id="CMUSansSerif-97" />
    <clipPath
       id="p4e84c0e078">
      <rect
         height="277.20001"
         width="334.79999"
         x="54"
         y="43.200001"
         id="rect916" />
    </clipPath>
    <style
       type="text/css"
       id="style1009">*{stroke-linecap:butt;stroke-linejoin:round;}</style>
    <path
       d="m 3.515625,62.3125 v 6.578125 H 64.3125 V 62.3125 H 50.09375 L 38.375,62.40625 V 0 H 29.5 V 62.40625 L 17.671875,62.3125 Z"
       id="CMUSansSerif-84-3" />
    <path
       d="m 7.421875,58.984375 v 8.9375 h 8.984375 v -8.9375 z M 8.109375,0 v 44.484375 h 7.46875 V 0 Z"
       id="CMUSansSerif-105-6" />
    <path
       d="m 3.421875,22.609375 q 0,9.90625 6.03125,16.6875 6.03125,6.796875 14.125,6.796875 2.984375,0 5.6875,-0.953125 2.71875,-0.953125 5.46875,-3.15625 2.765625,-2.1875 4.5625,-6.59375 Q 41.109375,31 41.40625,24.90625 v -2.890625 h -31 Q 10.6875,14.5 14.984375,9.78125 19.28125,5.078125 25.203125,5.078125 q 7.609375,0 15.171875,5.515625 L 41.015625,4 q -7.609375,-5.078125 -15.8125,-5.125 -9.53125,0 -15.65625,7.046875 -6.125,7.0625 -6.125,16.6875 z m 7.46875,4.875 H 35.6875 q -0.578125,3.90625 -2.140625,6.609375 -1.5625,2.71875 -3.515625,3.859375 -1.953125,1.15625 -3.5,1.546875 -1.53125,0.390625 -2.953125,0.390625 -5.078125,0 -8.40625,-3.90625 -3.3125,-3.90625 -4.28125,-8.5 z"
       id="CMUSansSerif-101-7" />
    <path
       d="m 8.015625,0 v 45.015625 h 7.265625 v -7.03125 q 5.8125,7.53125 14.609375,7.53125 9.703125,0 12.6875,-8.109375 6.109375,8.109375 15.140625,8.109375 3.8125,0 6.546875,-1.25 2.734375,-1.25 4.0625,-2.90625 1.34375,-1.65625 2.09375,-4.25 0.765625,-2.59375 0.859375,-4.25 0.109375,-1.65625 0.109375,-4.046875 V 0 h -7.90625 v 28.078125 q 0,0.1875 0,0.609375 0,0.421875 -0.203125,1.609375 -0.1875,1.203125 -0.53125,2.25 -0.34375,1.046875 -1.0625,2.34375 -0.703125,1.296875 -1.703125,2.25 -1,0.953125 -2.59375,1.609375 -1.578125,0.65625 -3.578125,0.65625 -5.328125,0 -7.765625,-4.5 -2.4375,-4.484375 -2.4375,-10.875 V 0 h -7.8125 v 28.078125 q 0,1.703125 -0.0625,2.703125 -0.04687,1 -0.578125,2.859375 Q 34.625,35.5 33.671875,36.59375 q -0.953125,1.109375 -2.90625,1.953125 -1.953125,0.859375 -4.78125,0.859375 -5.328125,0 -7.75,-4.5 -2.40625,-4.484375 -2.40625,-10.875 V 0 Z"
       id="CMUSansSerif-109-5" />
    <path
       d="m 8.109375,-19.484375 v 63.96875 h 7.46875 V 39.59375 q 7.328125,5.921875 16.59375,5.921875 6.890625,0 11.359375,-6.921875 Q 48,31.6875 48,22.40625 48,12.109375 42.453125,5.484375 36.921875,-1.125 29.390625,-1.125 q -7.421875,0 -13.46875,5.71875 v -24.078125 z m 7.8125,32.078125 q 0,-2.1875 2.828125,-4.90625 2.828125,-2.703125 6.84375,-2.703125 5.609375,0 10.046875,4.796875 4.453125,4.8125 4.453125,12.4375 0,6.78125 -3.796875,11.828125 -3.78125,5.0625 -9.78125,5.0625 -1.125,0 -2.125,-0.15625 -1,-0.140625 -1.859375,-0.5 Q 21.6875,38.09375 20.953125,37.75 20.21875,37.40625 19.546875,36.96875 18.890625,36.53125 18.40625,36.109375 17.921875,35.6875 17.453125,35.203125 17,34.71875 16.75,34.390625 16.5,34.078125 16.21875,33.796875 L 15.921875,33.40625 Z"
       id="CMUSansSerif-112-3" />
    <path
       d="m 2.984375,22.125 q 0,10.109375 6.46875,17.03125 6.46875,6.9375 15.453125,6.9375 9.421875,0 15.71875,-7.25 6.296875,-7.25 6.296875,-16.828125 0,-9.90625 -6.625,-16.53125 Q 33.6875,-1.125 24.890625,-1.125 q -8.78125,0 -15.34375,6.65625 -6.5625,6.671875 -6.5625,16.59375 z m 7.8125,0.96875 q 0,-8.78125 4.234375,-13.28125 4.25,-4.484375 9.859375,-4.484375 5.625,0 9.875,4.53125 4.25,4.546875 4.25,13.234375 0,8.40625 -4.25,12.59375 -4.25,4.203125 -9.859375,4.203125 -5.515625,0 -9.8125,-4.203125 Q 10.796875,31.5 10.796875,23.09375 Z"
       id="CMUSansSerif-111-5" />
    <path
       d="m 9.421875,0 v 69.09375 h 44.6875 V 62.5 h -5.71875 L 45.90625,62.59375 H 21.921875 l -3.515625,0.109375 v -23.6875 H 51.421875 V 32.90625 H 18.40625 V 6.984375 h 8.5 l 2.390625,0.09375 H 48.6875 l 2.1875,0.09375 h 4.640625 V 0 Z"
       id="CMUSansSerif-69-6" />
    <path
       d="m 8.015625,0 v 45.015625 h 7.265625 v -7.03125 q 5.8125,7.53125 14.609375,7.53125 3.703125,0 6.359375,-1.109375 2.671875,-1.09375 4.0625,-2.703125 1.390625,-1.609375 2.140625,-4.0625 0.765625,-2.4375 0.953125,-4.34375 0.203125,-1.90625 0.203125,-4.484375 V 0 h -7.8125 v 28.078125 q 0,1.703125 -0.0625,2.703125 -0.04687,1 -0.578125,2.859375 Q 34.625,35.5 33.671875,36.59375 q -0.953125,1.109375 -2.90625,1.953125 -1.953125,0.859375 -4.78125,0.859375 -5.328125,0 -7.75,-4.5 -2.40625,-4.484375 -2.40625,-10.875 V 0 Z"
       id="CMUSansSerif-110-2" />
    <path
       d="m 8.109375,0 v 45.015625 h 6.984375 v -9.03125 q 1.21875,1.90625 2.890625,3.65625 1.6875,1.765625 5.734375,3.765625 4.0625,2 8.90625,2.109375 V 38.8125 q -2.59375,-0.09375 -5.203125,-0.953125 -2.609375,-0.84375 -5.46875,-2.703125 -2.859375,-1.859375 -4.625,-5.671875 -1.75,-3.796875 -1.75,-8.875 V 0 Z"
       id="CMUSansSerif-114-9" />
    <path
       d="m 2.6875,-7.078125 q 0,6.484375 6.390625,10.296875 -2.484375,3.625 -2.484375,7.578125 0,4.484375 2.921875,8.390625 v 0.09375 q -3.3125,4.296875 -3.3125,9.921875 0,7.078125 4.75,11.6875 4.765625,4.625 11.171875,4.625 5.078125,0 9.765625,-3.328125 L 31.6875,42.390625 q 7.421875,3.0625 15.71875,3.125 l 1.078125,-6.3125 Q 45.515625,39.5 42.578125,39.5 q -0.296875,0 -7.46875,-0.390625 l -0.921875,0.78125 q 3.90625,-5.3125 3.90625,-10.6875 0,-6.5 -4.59375,-11.40625 -4.59375,-4.90625 -11.375,-4.90625 -4.40625,0 -9.140625,3.03125 -1.125,-2.203125 -1.0625,-3.71875 0,-2 1.1875,-3.65625 1.203125,-1.65625 4.375,-1.65625 H 25 q 3.515625,0 5.953125,-0.25 2.453125,-0.25 6.109375,-1.109375 3.65625,-0.84375 6.09375,-3.09375 2.453125,-2.234375 3.421875,-5.765625 0.5,-2 0.546875,-3.65625 0,-5.8125 -6.53125,-9.71875 -6.515625,-3.90625 -15.6875,-3.90625 -9.28125,0 -15.75,3.90625 -6.46875,3.90625 -6.46875,9.625 z m 7.03125,0 q 0,-2.59375 2.6875,-4.4375 2.6875,-1.859375 5.984375,-2.609375 3.296875,-0.765625 6.421875,-0.765625 6.296875,0 10.78125,2.15625 4.5,2.140625 4.5,5.5625 0,6.875 -14.890625,6.875 h -6.3125 l -2.875,-0.09375 q -2.875,-0.296875 -4.59375,-2.296875 -1.703125,-2 -1.703125,-4.390625 z m 3.46875,36.28125 q 0,-4.78125 2.453125,-7.640625 2.46875,-2.859375 6.578125,-2.859375 3.421875,0 6.15625,2.4375 2.734375,2.4375 2.734375,8.15625 0,4.78125 -2.453125,7.640625 -2.4375,2.859375 -6.53125,2.859375 -3.421875,0 -6.1875,-2.453125 -2.75,-2.4375 -2.75,-8.140625 z"
       id="CMUSansSerif-103-1" />
    <path
       d="M 3.171875,50.984375 16.5,64.015625 h 7.765625 L 9.375,50.984375 Z M 8.109375,0 v 44.484375 h 7.46875 V 0 Z"
       id="CMUSansSerif-237-2" />
    <path
       d="m 4.390625,11.28125 q 0,3.703125 2.8125,6.46875 2.8125,2.765625 7.34375,4.09375 4.546875,1.34375 8.890625,2 4.34375,0.671875 8.734375,0.671875 V 27.875 q -0.1875,6.40625 -2.578125,9.234375 -2.5,2.984375 -6.296875,2.984375 -7.71875,0 -15,-5.078125 l -0.578125,6.6875 q 7.515625,4.390625 15.671875,4.390625 6.890625,0 11.546875,-4.546875 4.65625,-4.53125 5.046875,-11.03125 V 0 h -7.5625 V 3.515625 Q 32.03125,3.125 30.5625,2.21875 29.109375,1.3125 24.90625,0.09375 20.703125,-1.125 15.828125,-1.125 10.109375,-1.125 7.25,2.921875 4.390625,6.984375 4.390625,11.28125 Z M 11.71875,11.375 q 0,-2.6875 2.640625,-4.5 Q 17,5.078125 21,5.078125 q 4.296875,0 7.734375,1.796875 3.4375,1.8125 3.4375,6.109375 v 6.296875 q -3.0625,0 -6.265625,-0.390625 Q 22.703125,18.5 19.3125,17.6875 15.921875,16.890625 13.8125,15.234375 11.71875,13.578125 11.71875,11.375 Z"
       id="CMUSansSerif-97-7" />
    <clipPath
       id="pec96dba6d6">
      <rect
         height="277.20001"
         width="334.79999"
         x="54"
         y="43.200001"
         id="rect1089" />
    </clipPath>
    <style
       type="text/css"
       id="style1180">*{stroke-linecap:butt;stroke-linejoin:round;}</style>
    <path
       d="M 0,0 V 3.5"
       id="m38c254354b"
       style="stroke:#ffffff;stroke-width:0.8" />
    <path
       d="m 3.515625,62.3125 v 6.578125 H 64.3125 V 62.3125 H 50.09375 L 38.375,62.40625 V 0 H 29.5 V 62.40625 L 17.671875,62.3125 Z"
       id="CMUSansSerif-84-0" />
    <path
       d="m 7.421875,58.984375 v 8.9375 h 8.984375 v -8.9375 z M 8.109375,0 v 44.484375 h 7.46875 V 0 Z"
       id="CMUSansSerif-105-9" />
    <path
       d="m 3.421875,22.609375 q 0,9.90625 6.03125,16.6875 6.03125,6.796875 14.125,6.796875 2.984375,0 5.6875,-0.953125 2.71875,-0.953125 5.46875,-3.15625 2.765625,-2.1875 4.5625,-6.59375 Q 41.109375,31 41.40625,24.90625 v -2.890625 h -31 Q 10.6875,14.5 14.984375,9.78125 19.28125,5.078125 25.203125,5.078125 q 7.609375,0 15.171875,5.515625 L 41.015625,4 q -7.609375,-5.078125 -15.8125,-5.125 -9.53125,0 -15.65625,7.046875 -6.125,7.0625 -6.125,16.6875 z m 7.46875,4.875 H 35.6875 q -0.578125,3.90625 -2.140625,6.609375 -1.5625,2.71875 -3.515625,3.859375 -1.953125,1.15625 -3.5,1.546875 -1.53125,0.390625 -2.953125,0.390625 -5.078125,0 -8.40625,-3.90625 -3.3125,-3.90625 -4.28125,-8.5 z"
       id="CMUSansSerif-101-3" />
    <path
       d="m 8.015625,0 v 45.015625 h 7.265625 v -7.03125 q 5.8125,7.53125 14.609375,7.53125 9.703125,0 12.6875,-8.109375 6.109375,8.109375 15.140625,8.109375 3.8125,0 6.546875,-1.25 2.734375,-1.25 4.0625,-2.90625 1.34375,-1.65625 2.09375,-4.25 0.765625,-2.59375 0.859375,-4.25 0.109375,-1.65625 0.109375,-4.046875 V 0 h -7.90625 v 28.078125 q 0,0.1875 0,0.609375 0,0.421875 -0.203125,1.609375 -0.1875,1.203125 -0.53125,2.25 -0.34375,1.046875 -1.0625,2.34375 -0.703125,1.296875 -1.703125,2.25 -1,0.953125 -2.59375,1.609375 -1.578125,0.65625 -3.578125,0.65625 -5.328125,0 -7.765625,-4.5 -2.4375,-4.484375 -2.4375,-10.875 V 0 h -7.8125 v 28.078125 q 0,1.703125 -0.0625,2.703125 -0.04687,1 -0.578125,2.859375 Q 34.625,35.5 33.671875,36.59375 q -0.953125,1.109375 -2.90625,1.953125 -1.953125,0.859375 -4.78125,0.859375 -5.328125,0 -7.75,-4.5 -2.40625,-4.484375 -2.40625,-10.875 V 0 Z"
       id="CMUSansSerif-109-6" />
    <path
       d="m 8.109375,-19.484375 v 63.96875 h 7.46875 V 39.59375 q 7.328125,5.921875 16.59375,5.921875 6.890625,0 11.359375,-6.921875 Q 48,31.6875 48,22.40625 48,12.109375 42.453125,5.484375 36.921875,-1.125 29.390625,-1.125 q -7.421875,0 -13.46875,5.71875 v -24.078125 z m 7.8125,32.078125 q 0,-2.1875 2.828125,-4.90625 2.828125,-2.703125 6.84375,-2.703125 5.609375,0 10.046875,4.796875 4.453125,4.8125 4.453125,12.4375 0,6.78125 -3.796875,11.828125 -3.78125,5.0625 -9.78125,5.0625 -1.125,0 -2.125,-0.15625 -1,-0.140625 -1.859375,-0.5 Q 21.6875,38.09375 20.953125,37.75 20.21875,37.40625 19.546875,36.96875 18.890625,36.53125 18.40625,36.109375 17.921875,35.6875 17.453125,35.203125 17,34.71875 16.75,34.390625 16.5,34.078125 16.21875,33.796875 L 15.921875,33.40625 Z"
       id="CMUSansSerif-112-0" />
    <path
       d="m 2.984375,22.125 q 0,10.109375 6.46875,17.03125 6.46875,6.9375 15.453125,6.9375 9.421875,0 15.71875,-7.25 6.296875,-7.25 6.296875,-16.828125 0,-9.90625 -6.625,-16.53125 Q 33.6875,-1.125 24.890625,-1.125 q -8.78125,0 -15.34375,6.65625 -6.5625,6.671875 -6.5625,16.59375 z m 7.8125,0.96875 q 0,-8.78125 4.234375,-13.28125 4.25,-4.484375 9.859375,-4.484375 5.625,0 9.875,4.53125 4.25,4.546875 4.25,13.234375 0,8.40625 -4.25,12.59375 -4.25,4.203125 -9.859375,4.203125 -5.515625,0 -9.8125,-4.203125 Q 10.796875,31.5 10.796875,23.09375 Z"
       id="CMUSansSerif-111-6" />
    <path
       d="M 0,0 H -3.5"
       id="mb338215b87"
       style="stroke:#ffffff;stroke-width:0.8" />
    <path
       d="m 9.421875,0 v 69.09375 h 44.6875 V 62.5 h -5.71875 L 45.90625,62.59375 H 21.921875 l -3.515625,0.109375 v -23.6875 H 51.421875 V 32.90625 H 18.40625 V 6.984375 h 8.5 l 2.390625,0.09375 H 48.6875 l 2.1875,0.09375 h 4.640625 V 0 Z"
       id="CMUSansSerif-69-2" />
    <path
       d="m 8.015625,0 v 45.015625 h 7.265625 v -7.03125 q 5.8125,7.53125 14.609375,7.53125 3.703125,0 6.359375,-1.109375 2.671875,-1.09375 4.0625,-2.703125 1.390625,-1.609375 2.140625,-4.0625 0.765625,-2.4375 0.953125,-4.34375 0.203125,-1.90625 0.203125,-4.484375 V 0 h -7.8125 v 28.078125 q 0,1.703125 -0.0625,2.703125 -0.04687,1 -0.578125,2.859375 Q 34.625,35.5 33.671875,36.59375 q -0.953125,1.109375 -2.90625,1.953125 -1.953125,0.859375 -4.78125,0.859375 -5.328125,0 -7.75,-4.5 -2.40625,-4.484375 -2.40625,-10.875 V 0 Z"
       id="CMUSansSerif-110-6" />
    <path
       d="m 8.109375,0 v 45.015625 h 6.984375 v -9.03125 q 1.21875,1.90625 2.890625,3.65625 1.6875,1.765625 5.734375,3.765625 4.0625,2 8.90625,2.109375 V 38.8125 q -2.59375,-0.09375 -5.203125,-0.953125 -2.609375,-0.84375 -5.46875,-2.703125 -2.859375,-1.859375 -4.625,-5.671875 -1.75,-3.796875 -1.75,-8.875 V 0 Z"
       id="CMUSansSerif-114-1" />
    <path
       d="m 2.6875,-7.078125 q 0,6.484375 6.390625,10.296875 -2.484375,3.625 -2.484375,7.578125 0,4.484375 2.921875,8.390625 v 0.09375 q -3.3125,4.296875 -3.3125,9.921875 0,7.078125 4.75,11.6875 4.765625,4.625 11.171875,4.625 5.078125,0 9.765625,-3.328125 L 31.6875,42.390625 q 7.421875,3.0625 15.71875,3.125 l 1.078125,-6.3125 Q 45.515625,39.5 42.578125,39.5 q -0.296875,0 -7.46875,-0.390625 l -0.921875,0.78125 q 3.90625,-5.3125 3.90625,-10.6875 0,-6.5 -4.59375,-11.40625 -4.59375,-4.90625 -11.375,-4.90625 -4.40625,0 -9.140625,3.03125 -1.125,-2.203125 -1.0625,-3.71875 0,-2 1.1875,-3.65625 1.203125,-1.65625 4.375,-1.65625 H 25 q 3.515625,0 5.953125,-0.25 2.453125,-0.25 6.109375,-1.109375 3.65625,-0.84375 6.09375,-3.09375 2.453125,-2.234375 3.421875,-5.765625 0.5,-2 0.546875,-3.65625 0,-5.8125 -6.53125,-9.71875 -6.515625,-3.90625 -15.6875,-3.90625 -9.28125,0 -15.75,3.90625 -6.46875,3.90625 -6.46875,9.625 z m 7.03125,0 q 0,-2.59375 2.6875,-4.4375 2.6875,-1.859375 5.984375,-2.609375 3.296875,-0.765625 6.421875,-0.765625 6.296875,0 10.78125,2.15625 4.5,2.140625 4.5,5.5625 0,6.875 -14.890625,6.875 h -6.3125 l -2.875,-0.09375 q -2.875,-0.296875 -4.59375,-2.296875 -1.703125,-2 -1.703125,-4.390625 z m 3.46875,36.28125 q 0,-4.78125 2.453125,-7.640625 2.46875,-2.859375 6.578125,-2.859375 3.421875,0 6.15625,2.4375 2.734375,2.4375 2.734375,8.15625 0,4.78125 -2.453125,7.640625 -2.4375,2.859375 -6.53125,2.859375 -3.421875,0 -6.1875,-2.453125 -2.75,-2.4375 -2.75,-8.140625 z"
       id="CMUSansSerif-103-8" />
    <path
       d="M 3.171875,50.984375 16.5,64.015625 h 7.765625 L 9.375,50.984375 Z M 8.109375,0 v 44.484375 h 7.46875 V 0 Z"
       id="CMUSansSerif-237-7" />
    <path
       d="m 4.390625,11.28125 q 0,3.703125 2.8125,6.46875 2.8125,2.765625 7.34375,4.09375 4.546875,1.34375 8.890625,2 4.34375,0.671875 8.734375,0.671875 V 27.875 q -0.1875,6.40625 -2.578125,9.234375 -2.5,2.984375 -6.296875,2.984375 -7.71875,0 -15,-5.078125 l -0.578125,6.6875 q 7.515625,4.390625 15.671875,4.390625 6.890625,0 11.546875,-4.546875 4.65625,-4.53125 5.046875,-11.03125 V 0 h -7.5625 V 3.515625 Q 32.03125,3.125 30.5625,2.21875 29.109375,1.3125 24.90625,0.09375 20.703125,-1.125 15.828125,-1.125 10.109375,-1.125 7.25,2.921875 4.390625,6.984375 4.390625,11.28125 Z M 11.71875,11.375 q 0,-2.6875 2.640625,-4.5 Q 17,5.078125 21,5.078125 q 4.296875,0 7.734375,1.796875 3.4375,1.8125 3.4375,6.109375 v 6.296875 q -3.0625,0 -6.265625,-0.390625 Q 22.703125,18.5 19.3125,17.6875 15.921875,16.890625 13.8125,15.234375 11.71875,13.578125 11.71875,11.375 Z"
       id="CMUSansSerif-97-9" />
    <clipPath
       id="p5b6ec378f7">
      <rect
         height="277.20001"
         width="334.79999"
         x="54"
         y="43.200001"
         id="rect1383" />
    </clipPath>
    <marker
       style="overflow:visible"
       id="marker1767-3"
       refX="0"
       refY="0"
       orient="auto"
       inkscape:stockid="Arrow2Lend"
       inkscape:isstock="true">
      <path
         transform="matrix(-1.1,0,0,-1.1,-1.1,0)"
         d="M 8.7185878,4.0337352 -2.2072895,0.01601326 8.7185884,-4.0017078 c -1.7454984,2.3720609 -1.7354408,5.6174519 -6e-7,8.035443 z"
         style="fill:#8eb8e5;fill-opacity:1;fill-rule:evenodd;stroke:#8eb8e5;stroke-width:0.625;stroke-linejoin:round;stroke-opacity:1"
         id="path1765-6" />
    </marker>
    <marker
       style="overflow:visible"
       id="marker1767-3-5"
       refX="0"
       refY="0"
       orient="auto"
       inkscape:stockid="Arrow2Lend"
       inkscape:isstock="true">
      <path
         transform="matrix(-1.1,0,0,-1.1,-1.1,0)"
         d="M 8.7185878,4.0337352 -2.2072895,0.01601326 8.7185884,-4.0017078 c -1.7454984,2.3720609 -1.7354408,5.6174519 -6e-7,8.035443 z"
         style="fill:#8eb8e5;fill-opacity:1;fill-rule:evenodd;stroke:#8eb8e5;stroke-width:0.625;stroke-linejoin:round;stroke-opacity:1"
         id="path1765-6-3" />
    </marker>
    <style
       type="text/css"
       id="style3042">*{stroke-linecap:butt;stroke-linejoin:round;}</style>
    <path
       d="M 0 0  L 0 3.5  "
       id="m5292a95291"
       style="stroke:#ffffff;stroke-width:0.8;" />
    <path
       d="M 3.515625 62.3125  L 3.515625 68.890625  L 64.3125 68.890625  L 64.3125 62.3125  L 50.09375 62.3125  L 38.375 62.40625  L 38.375 0  L 29.5 0  L 29.5 62.40625  L 17.671875 62.3125  z "
       id="CMUSansSerif-84-08" />
    <path
       d="M 7.421875 58.984375  L 7.421875 67.921875  L 16.40625 67.921875  L 16.40625 58.984375  z M 8.109375 0  L 8.109375 44.484375  L 15.578125 44.484375  L 15.578125 0  z "
       id="CMUSansSerif-105-5" />
    <path
       d="M 3.421875 22.609375  Q 3.421875 32.515625 9.453125 39.296875  Q 15.484375 46.09375 23.578125 46.09375  Q 26.5625 46.09375 29.265625 45.140625  Q 31.984375 44.1875 34.734375 41.984375  Q 37.5 39.796875 39.296875 35.390625  Q 41.109375 31 41.40625 24.90625  L 41.40625 22.015625  L 10.40625 22.015625  Q 10.6875 14.5 14.984375 9.78125  Q 19.28125 5.078125 25.203125 5.078125  Q 32.8125 5.078125 40.375 10.59375  L 41.015625 4  Q 33.40625 -1.078125 25.203125 -1.125  Q 15.671875 -1.125 9.546875 5.921875  Q 3.421875 12.984375 3.421875 22.609375  z M 10.890625 27.484375  L 35.6875 27.484375  Q 35.109375 31.390625 33.546875 34.09375  Q 31.984375 36.8125 30.03125 37.953125  Q 28.078125 39.109375 26.53125 39.5  Q 25 39.890625 23.578125 39.890625  Q 18.5 39.890625 15.171875 35.984375  Q 11.859375 32.078125 10.890625 27.484375  z "
       id="CMUSansSerif-101-0" />
    <path
       d="M 8.015625 0  L 8.015625 45.015625  L 15.28125 45.015625  L 15.28125 37.984375  Q 21.09375 45.515625 29.890625 45.515625  Q 39.59375 45.515625 42.578125 37.40625  Q 48.6875 45.515625 57.71875 45.515625  Q 61.53125 45.515625 64.265625 44.265625  Q 67 43.015625 68.328125 41.359375  Q 69.671875 39.703125 70.421875 37.109375  Q 71.1875 34.515625 71.28125 32.859375  Q 71.390625 31.203125 71.390625 28.8125  L 71.390625 0  L 63.484375 0  L 63.484375 28.078125  Q 63.484375 28.265625 63.484375 28.6875  Q 63.484375 29.109375 63.28125 30.296875  Q 63.09375 31.5 62.75 32.546875  Q 62.40625 33.59375 61.6875 34.890625  Q 60.984375 36.1875 59.984375 37.140625  Q 58.984375 38.09375 57.390625 38.75  Q 55.8125 39.40625 53.8125 39.40625  Q 48.484375 39.40625 46.046875 34.90625  Q 43.609375 30.421875 43.609375 24.03125  L 43.609375 0  L 35.796875 0  L 35.796875 28.078125  Q 35.796875 29.78125 35.734375 30.78125  Q 35.6875 31.78125 35.15625 33.640625  Q 34.625 35.5 33.671875 36.59375  Q 32.71875 37.703125 30.765625 38.546875  Q 28.8125 39.40625 25.984375 39.40625  Q 20.65625 39.40625 18.234375 34.90625  Q 15.828125 30.421875 15.828125 24.03125  L 15.828125 0  z "
       id="CMUSansSerif-109-64" />
    <path
       d="M 8.109375 -19.484375  L 8.109375 44.484375  L 15.578125 44.484375  L 15.578125 39.59375  Q 22.90625 45.515625 32.171875 45.515625  Q 39.0625 45.515625 43.53125 38.59375  Q 48 31.6875 48 22.40625  Q 48 12.109375 42.453125 5.484375  Q 36.921875 -1.125 29.390625 -1.125  Q 21.96875 -1.125 15.921875 4.59375  L 15.921875 -19.484375  z M 15.921875 12.59375  Q 15.921875 10.40625 18.75 7.6875  Q 21.578125 4.984375 25.59375 4.984375  Q 31.203125 4.984375 35.640625 9.78125  Q 40.09375 14.59375 40.09375 22.21875  Q 40.09375 29 36.296875 34.046875  Q 32.515625 39.109375 26.515625 39.109375  Q 25.390625 39.109375 24.390625 38.953125  Q 23.390625 38.8125 22.53125 38.453125  Q 21.6875 38.09375 20.953125 37.75  Q 20.21875 37.40625 19.546875 36.96875  Q 18.890625 36.53125 18.40625 36.109375  Q 17.921875 35.6875 17.453125 35.203125  Q 17 34.71875 16.75 34.390625  Q 16.5 34.078125 16.21875 33.796875  L 15.921875 33.40625  z "
       id="CMUSansSerif-112-6" />
    <path
       d="M 2.984375 22.125  Q 2.984375 32.234375 9.453125 39.15625  Q 15.921875 46.09375 24.90625 46.09375  Q 34.328125 46.09375 40.625 38.84375  Q 46.921875 31.59375 46.921875 22.015625  Q 46.921875 12.109375 40.296875 5.484375  Q 33.6875 -1.125 24.890625 -1.125  Q 16.109375 -1.125 9.546875 5.53125  Q 2.984375 12.203125 2.984375 22.125  z M 10.796875 23.09375  Q 10.796875 14.3125 15.03125 9.8125  Q 19.28125 5.328125 24.890625 5.328125  Q 30.515625 5.328125 34.765625 9.859375  Q 39.015625 14.40625 39.015625 23.09375  Q 39.015625 31.5 34.765625 35.6875  Q 30.515625 39.890625 24.90625 39.890625  Q 19.390625 39.890625 15.09375 35.6875  Q 10.796875 31.5 10.796875 23.09375  z "
       id="CMUSansSerif-111-2" />
    <path
       d="M 0 0  L -3.5 0  "
       id="m06c05f6e39"
       style="stroke:#ffffff;stroke-width:0.8;" />
    <path
       d="M 9.421875 0  L 9.421875 69.09375  L 54.109375 69.09375  L 54.109375 62.5  L 48.390625 62.5  L 45.90625 62.59375  L 21.921875 62.59375  L 18.40625 62.703125  L 18.40625 39.015625  L 51.421875 39.015625  L 51.421875 32.90625  L 18.40625 32.90625  L 18.40625 6.984375  L 26.90625 6.984375  L 29.296875 7.078125  L 48.6875 7.078125  L 50.875 7.171875  L 55.515625 7.171875  L 55.515625 0  z "
       id="CMUSansSerif-69-0" />
    <path
       d="M 8.015625 0  L 8.015625 45.015625  L 15.28125 45.015625  L 15.28125 37.984375  Q 21.09375 45.515625 29.890625 45.515625  Q 33.59375 45.515625 36.25 44.40625  Q 38.921875 43.3125 40.3125 41.703125  Q 41.703125 40.09375 42.453125 37.640625  Q 43.21875 35.203125 43.40625 33.296875  Q 43.609375 31.390625 43.609375 28.8125  L 43.609375 0  L 35.796875 0  L 35.796875 28.078125  Q 35.796875 29.78125 35.734375 30.78125  Q 35.6875 31.78125 35.15625 33.640625  Q 34.625 35.5 33.671875 36.59375  Q 32.71875 37.703125 30.765625 38.546875  Q 28.8125 39.40625 25.984375 39.40625  Q 20.65625 39.40625 18.234375 34.90625  Q 15.828125 30.421875 15.828125 24.03125  L 15.828125 0  z "
       id="CMUSansSerif-110-3" />
    <path
       d="M 8.109375 0  L 8.109375 45.015625  L 15.09375 45.015625  L 15.09375 35.984375  Q 16.3125 37.890625 17.984375 39.640625  Q 19.671875 41.40625 23.71875 43.40625  Q 27.78125 45.40625 32.625 45.515625  L 32.625 38.8125  Q 30.03125 38.71875 27.421875 37.859375  Q 24.8125 37.015625 21.953125 35.15625  Q 19.09375 33.296875 17.328125 29.484375  Q 15.578125 25.6875 15.578125 20.609375  L 15.578125 0  z "
       id="CMUSansSerif-114-91" />
    <path
       d="M 2.6875 -7.078125  Q 2.6875 -0.59375 9.078125 3.21875  Q 6.59375 6.84375 6.59375 10.796875  Q 6.59375 15.28125 9.515625 19.1875  L 9.515625 19.28125  Q 6.203125 23.578125 6.203125 29.203125  Q 6.203125 36.28125 10.953125 40.890625  Q 15.71875 45.515625 22.125 45.515625  Q 27.203125 45.515625 31.890625 42.1875  L 31.6875 42.390625  Q 39.109375 45.453125 47.40625 45.515625  L 48.484375 39.203125  Q 45.515625 39.5 42.578125 39.5  Q 42.28125 39.5 35.109375 39.109375  L 34.1875 39.890625  Q 38.09375 34.578125 38.09375 29.203125  Q 38.09375 22.703125 33.5 17.796875  Q 28.90625 12.890625 22.125 12.890625  Q 17.71875 12.890625 12.984375 15.921875  Q 11.859375 13.71875 11.921875 12.203125  Q 11.921875 10.203125 13.109375 8.546875  Q 14.3125 6.890625 17.484375 6.890625  L 25 6.890625  Q 28.515625 6.890625 30.953125 6.640625  Q 33.40625 6.390625 37.0625 5.53125  Q 40.71875 4.6875 43.15625 2.4375  Q 45.609375 0.203125 46.578125 -3.328125  Q 47.078125 -5.328125 47.125 -6.984375  Q 47.125 -12.796875 40.59375 -16.703125  Q 34.078125 -20.609375 24.90625 -20.609375  Q 15.625 -20.609375 9.15625 -16.703125  Q 2.6875 -12.796875 2.6875 -7.078125  z M 9.71875 -7.078125  Q 9.71875 -9.671875 12.40625 -11.515625  Q 15.09375 -13.375 18.390625 -14.125  Q 21.6875 -14.890625 24.8125 -14.890625  Q 31.109375 -14.890625 35.59375 -12.734375  Q 40.09375 -10.59375 40.09375 -7.171875  Q 40.09375 -0.296875 25.203125 -0.296875  L 18.890625 -0.296875  L 16.015625 -0.390625  Q 13.140625 -0.6875 11.421875 -2.6875  Q 9.71875 -4.6875 9.71875 -7.078125  z M 13.1875 29.203125  Q 13.1875 24.421875 15.640625 21.5625  Q 18.109375 18.703125 22.21875 18.703125  Q 25.640625 18.703125 28.375 21.140625  Q 31.109375 23.578125 31.109375 29.296875  Q 31.109375 34.078125 28.65625 36.9375  Q 26.21875 39.796875 22.125 39.796875  Q 18.703125 39.796875 15.9375 37.34375  Q 13.1875 34.90625 13.1875 29.203125  z "
       id="CMUSansSerif-103-9" />
    <path
       d="M 3.171875 50.984375  L 16.5 64.015625  L 24.265625 64.015625  L 9.375 50.984375  z M 8.109375 0  L 8.109375 44.484375  L 15.578125 44.484375  L 15.578125 0  z "
       id="CMUSansSerif-237-6" />
    <path
       d="M 4.390625 11.28125  Q 4.390625 14.984375 7.203125 17.75  Q 10.015625 20.515625 14.546875 21.84375  Q 19.09375 23.1875 23.4375 23.84375  Q 27.78125 24.515625 32.171875 24.515625  L 32.171875 27.875  Q 31.984375 34.28125 29.59375 37.109375  Q 27.09375 40.09375 23.296875 40.09375  Q 15.578125 40.09375 8.296875 35.015625  L 7.71875 41.703125  Q 15.234375 46.09375 23.390625 46.09375  Q 30.28125 46.09375 34.9375 41.546875  Q 39.59375 37.015625 39.984375 30.515625  L 39.984375 0  L 32.421875 0  L 32.421875 3.515625  Q 32.03125 3.125 30.5625 2.21875  Q 29.109375 1.3125 24.90625 0.09375  Q 20.703125 -1.125 15.828125 -1.125  Q 10.109375 -1.125 7.25 2.921875  Q 4.390625 6.984375 4.390625 11.28125  z M 11.71875 11.375  Q 11.71875 8.6875 14.359375 6.875  Q 17 5.078125 21 5.078125  Q 25.296875 5.078125 28.734375 6.875  Q 32.171875 8.6875 32.171875 12.984375  L 32.171875 19.28125  Q 29.109375 19.28125 25.90625 18.890625  Q 22.703125 18.5 19.3125 17.6875  Q 15.921875 16.890625 13.8125 15.234375  Q 11.71875 13.578125 11.71875 11.375  z "
       id="CMUSansSerif-97-93" />
    <clipPath
       id="p2129aff4dc">
      <rect
         height="277.2"
         width="334.8"
         x="54"
         y="43.2"
         id="rect3245" />
    </clipPath>
  </defs>
  <sodipodi:namedview
     id="base"
     pagecolor="#ffffff"
     bordercolor="#666666"
     borderopacity="1.0"
     inkscape:pageopacity="0.0"
     inkscape:pageshadow="2"
     inkscape:zoom="1.24"
     inkscape:cx="425.9603"
     inkscape:cy="306.10656"
     inkscape:document-units="mm"
     inkscape:current-layer="layer1"
     inkscape:document-rotation="0"
     showgrid="true"
     showguides="false"
     inkscape:window-width="1920"
     inkscape:window-height="1016"
     inkscape:window-x="0"
     inkscape:window-y="27"
     inkscape:window-maximized="1"
     fit-margin-top="0"
     fit-margin-left="0"
     fit-margin-right="0"
     fit-margin-bottom="0">
    <inkscape:grid
       type="xygrid"
       id="grid2435"
       originx="6.8686616"
       originy="-2.0717146" />
  </sodipodi:namedview>
  <metadata
     id="metadata5">
    <rdf:RDF>
      <cc:Work
         rdf:about="">
        <dc:format>image/svg+xml</dc:format>
        <dc:type
           rdf:resource="http://purl.org/dc/dcmitype/StillImage" />
        <dc:title />
      </cc:Work>
    </rdf:RDF>
  </metadata>
  <g
     inkscape:groupmode="layer"
     id="layer2"
     inkscape:label="bg"
     transform="translate(6.8686616,-2.0717143)"
     style="display:none"
     sodipodi:insensitive="true">
    <rect
       style="fill:#000000;stroke:#000000;stroke-width:1.32356;stroke-opacity:0"
       id="rect1005"
       width="164.31175"
       height="132.03439"
       x="-7.6889224"
       y="3.7491176" />
  </g>
  <g
     inkscape:label="Layer 1"
     inkscape:groupmode="layer"
     id="layer1"
     style="display:inline"
     transform="translate(6.8686616,-2.0717143)">
    <text
       xml:space="preserve"
       style="font-style:normal;font-weight:normal;font-size:5.64444px;line-height:1.25;font-family:sans-serif;fill:#000000;fill-opacity:1;stroke:none;stroke-width:0.264583"
       x="39.898441"
       y="13.872372"
       id="text1560"><tspan
         sodipodi:role="line"
         id="tspan1558"
         x="39.898441"
         y="13.872372"
         style="font-style:normal;font-variant:normal;font-weight:normal;font-stretch:normal;font-size:5.64444px;font-family:'CMU Sans Serif';-inkscape-font-specification:'CMU Sans Serif';fill:#ffffff;stroke-width:0.264583">Transición Adiabática</tspan></text>
    <path
       style="fill:none;stroke:#ffffff;stroke-width:1;stroke-linecap:butt;stroke-linejoin:miter;stroke-miterlimit:4;stroke-dasharray:none;stroke-opacity:1"
       d="m 117.69041,21.399856 c 16.41512,-0.148194 2.79548,18.826225 13.62223,23.81124 -10.77776,3.98047 2.76949,25.682091 -13.62223,25.083761"
       id="path1562"
       sodipodi:nodetypes="ccc" />
    <text
       xml:space="preserve"
       style="font-style:normal;font-weight:normal;font-size:5.64444px;line-height:1.25;font-family:sans-serif;fill:#000000;fill-opacity:1;stroke:none;stroke-width:0.264583"
       x="133.08806"
       y="81.94104"
       id="text1586"><tspan
         sodipodi:role="line"
         id="tspan1584"
         x="133.08806"
         y="81.94104"
         style="font-style:normal;font-variant:normal;font-weight:normal;font-stretch:normal;font-size:5.64444px;font-family:'CMU Sans Serif';-inkscape-font-specification:'CMU Sans Serif';fill:#ffffff;stroke-width:0.264583">Estado</tspan><tspan
         sodipodi:role="line"
         x="133.08806"
         y="89.222588"
         style="font-style:normal;font-variant:normal;font-weight:normal;font-stretch:normal;font-size:5.64444px;font-family:'CMU Sans Serif';-inkscape-font-specification:'CMU Sans Serif';fill:#ffffff;stroke-width:0.264583"
         id="tspan1588">base</tspan></text>
    <text
       xml:space="preserve"
       style="font-style:normal;font-weight:normal;font-size:5.64444px;line-height:1.25;font-family:sans-serif;display:inline;fill:#000000;fill-opacity:1;stroke:none;stroke-width:0.264583;stroke-linecap:butt;stroke-linejoin:round"
       x="133.8183"
       y="43.496075"
       id="text1586-0"><tspan
         sodipodi:role="line"
         id="tspan1584-2"
         x="133.8183"
         y="43.496075"
         style="font-style:normal;font-variant:normal;font-weight:normal;font-stretch:normal;font-size:5.64444px;font-family:'CMU Sans Serif';-inkscape-font-specification:'CMU Sans Serif';fill:#ffffff;stroke-width:0.264583">Estados</tspan><tspan
         sodipodi:role="line"
         x="133.8183"
         y="50.777622"
         style="font-style:normal;font-variant:normal;font-weight:normal;font-stretch:normal;font-size:5.64444px;font-family:'CMU Sans Serif';-inkscape-font-specification:'CMU Sans Serif';fill:#ffffff;stroke-width:0.264583"
         id="tspan1588-3">excitados</tspan></text>
    <path
       style="fill:none;stroke:#ffffff;stroke-width:0.4;stroke-linecap:butt;stroke-linejoin:miter;stroke-miterlimit:3;stroke-dasharray:none;stroke-opacity:1;marker-end:url(#marker1767)"
       d="m 131.08424,83.61469 -21.2467,11.88075"
       id="path1455" />
    <path
       style="display:inline;fill:#8eb8e5;fill-opacity:1;stroke:#8eb8e5;stroke-width:0.332483;stroke-linecap:butt;stroke-linejoin:miter;stroke-miterlimit:3;stroke-dasharray:none;stroke-opacity:1;marker-end:url(#marker1767-3)"
       d="M 11.46979,119.87902 11.44616,109.35174"
       id="path1455-7"
       sodipodi:nodetypes="cc" />
    <text
       xml:space="preserve"
       style="font-style:normal;font-weight:normal;font-size:5.64444px;line-height:1.25;font-family:sans-serif;fill:#000000;fill-opacity:1;stroke:none;stroke-width:0.264583"
       x="97.380875"
       y="122.77838"
       id="text2233"><tspan
         sodipodi:role="line"
         id="tspan2231"
         x="97.380875"
         y="122.77838"
         style="font-style:normal;font-variant:normal;font-weight:normal;font-stretch:normal;font-size:5.64444px;font-family:'CMU Sans Serif';-inkscape-font-specification:'CMU Sans Serif';fill:#8eb8e5;fill-opacity:1;stroke-width:0.264583">Estado base de</tspan><tspan
         sodipodi:role="line"
         x="97.380875"
         y="130.05994"
         style="font-style:normal;font-variant:normal;font-weight:normal;font-stretch:normal;font-size:5.64444px;font-family:'CMU Sans Serif';-inkscape-font-specification:'CMU Sans Serif';fill:#8eb8e5;fill-opacity:1;stroke-width:0.264583"
         id="tspan2235">nuestro sistema</tspan></text>
    <path
       style="display:inline;fill:#8eb8e5;fill-opacity:1;stroke:#8eb8e5;stroke-width:0.332483;stroke-linecap:butt;stroke-linejoin:miter;stroke-miterlimit:3;stroke-dasharray:none;stroke-opacity:1;marker-end:url(#marker1767-3-5)"
       d="m 114.01589,119.51102 -0.0236,-10.52728"
       id="path1455-7-5"
       sodipodi:nodetypes="cc" />
    <text
       xml:space="preserve"
       style="font-style:normal;font-weight:normal;font-size:5.64444px;line-height:1.25;font-family:sans-serif;display:inline;fill:#000000;fill-opacity:1;stroke:none;stroke-width:0.264583;stroke-linecap:butt;stroke-linejoin:round"
       x="-5.2059951"
       y="122.42777"
       id="text2233-6"><tspan
         sodipodi:role="line"
         id="tspan2231-2"
         x="-5.2059951"
         y="122.42777"
         style="font-style:normal;font-variant:normal;font-weight:normal;font-stretch:normal;font-size:5.64444px;font-family:'CMU Sans Serif';-inkscape-font-specification:'CMU Sans Serif';fill:#8eb8e5;fill-opacity:1;stroke-width:0.264583">Estado base del</tspan><tspan
         sodipodi:role="line"
         x="-5.2059951"
         y="129.70932"
         style="font-style:normal;font-variant:normal;font-weight:normal;font-stretch:normal;font-size:5.64444px;font-family:'CMU Sans Serif';-inkscape-font-specification:'CMU Sans Serif';fill:#8eb8e5;fill-opacity:1;stroke-width:0.264583"
         id="tspan2235-9">sistema inicial</tspan></text>
    <ellipse
       style="fill:#808080;fill-opacity:0;stroke:#f5e5ef;stroke-width:0.468153;stroke-miterlimit:3;stroke-dasharray:1.87261, 1.87261;stroke-dashoffset:0.936305;stroke-opacity:1"
       id="path3474"
       cx="66.286667"
       cy="81.08493"
       rx="5.3952389"
       ry="6.8249655" />
    <text
       xml:space="preserve"
       style="font-style:normal;font-weight:normal;font-size:4.93888889px;line-height:1.25;font-family:sans-serif;fill:#ffffff;fill-opacity:1;stroke:none;stroke-width:0.264583;"
       x="52.760487"
       y="91.970856"
       id="text3490"><tspan
         sodipodi:role="line"
         id="tspan3488"
         x="52.760487"
         y="91.970856"
         style="font-style:normal;font-variant:normal;font-weight:normal;font-stretch:normal;font-family:'CMU Sans Serif';-inkscape-font-specification:'CMU Sans Serif';fill:#ffffff;stroke-width:0.264583;font-size:4.93888889px;">Alta probabilidad</tspan><tspan
         sodipodi:role="line"
         x="52.760487"
         y="97.432014"
         style="font-style:normal;font-variant:normal;font-weight:normal;font-stretch:normal;font-family:'CMU Sans Serif';-inkscape-font-specification:'CMU Sans Serif';fill:#ffffff;stroke-width:0.264583;font-size:4.93888889px;"
         id="tspan3492">de transición</tspan></text>
  </g>
  <g
     inkscape:groupmode="layer"
     id="layer3"
     inkscape:label="Layer 2"
     sodipodi:insensitive="true">
    <g
       style="stroke-linecap:butt;stroke-linejoin:round"
       id="g3418"
       transform="matrix(0.35277778,0,0,0.35277778,-8.0538392,0.36245177)">
      <g
         id="figure_1-6">
        <g
           id="patch_1-9">
          <path
             d="M 0,360 H 432 V 0 H 0 Z"
             style="fill:none"
             id="path3046" />
        </g>
        <g
           id="axes_1-2">
          <g
             id="patch_2-2">
            <path
               d="M 54,320.4 H 388.8 V 43.2 H 54 Z"
               style="fill:none"
               id="path3049" />
          </g>
          <g
             id="matplotlib.axis_1-4">
            <g
               id="xtick_1-7">
              <g
                 id="line2d_1-7">
                <path
                   clip-path="url(#p2129aff4dc)"
                   d="M 54,320.4 V 43.2"
                   style="fill:none;stroke:#b0b0b0;stroke-width:0.8;stroke-linecap:square"
                   id="path3052" />
              </g>
              <g
                 id="line2d_2-5">
                <defs
                   id="defs3056">
                  <path
                     d="M 0,0 V 3.5"
                     id="path3277"
                     style="stroke:#ffffff;stroke-width:0.8" />
                </defs>
                <g
                   id="g3060">
                  <use
                     style="fill:#ffffff;stroke:#ffffff;stroke-width:0.8"
                     x="54"
                     xlink:href="#m5292a95291"
                     y="320.39999"
                     id="use3058"
                     width="100%"
                     height="100%" />
                </g>
              </g>
            </g>
            <g
               id="xtick_2-4">
              <g
                 id="line2d_3-8">
                <path
                   clip-path="url(#p2129aff4dc)"
                   d="M 120.96,320.4 V 43.2"
                   style="fill:none;stroke:#b0b0b0;stroke-width:0.8;stroke-linecap:square"
                   id="path3064" />
              </g>
              <g
                 id="line2d_4-1">
                <g
                   id="g3069">
                  <use
                     style="fill:#ffffff;stroke:#ffffff;stroke-width:0.8"
                     x="120.96"
                     xlink:href="#m5292a95291"
                     y="320.39999"
                     id="use3067"
                     width="100%"
                     height="100%" />
                </g>
              </g>
            </g>
            <g
               id="xtick_3-2">
              <g
                 id="line2d_5-8">
                <path
                   clip-path="url(#p2129aff4dc)"
                   d="M 187.92,320.4 V 43.2"
                   style="fill:none;stroke:#b0b0b0;stroke-width:0.8;stroke-linecap:square"
                   id="path3073" />
              </g>
              <g
                 id="line2d_6-9">
                <g
                   id="g3078">
                  <use
                     style="fill:#ffffff;stroke:#ffffff;stroke-width:0.8"
                     x="187.92"
                     xlink:href="#m5292a95291"
                     y="320.39999"
                     id="use3076"
                     width="100%"
                     height="100%" />
                </g>
              </g>
            </g>
            <g
               id="xtick_4-3">
              <g
                 id="line2d_7-6">
                <path
                   clip-path="url(#p2129aff4dc)"
                   d="M 254.88,320.4 V 43.2"
                   style="fill:none;stroke:#b0b0b0;stroke-width:0.8;stroke-linecap:square"
                   id="path3082" />
              </g>
              <g
                 id="line2d_8-8">
                <g
                   id="g3087">
                  <use
                     style="fill:#ffffff;stroke:#ffffff;stroke-width:0.8"
                     x="254.88"
                     xlink:href="#m5292a95291"
                     y="320.39999"
                     id="use3085"
                     width="100%"
                     height="100%" />
                </g>
              </g>
            </g>
            <g
               id="xtick_5-0">
              <g
                 id="line2d_9-2">
                <path
                   clip-path="url(#p2129aff4dc)"
                   d="M 321.84,320.4 V 43.2"
                   style="fill:none;stroke:#b0b0b0;stroke-width:0.8;stroke-linecap:square"
                   id="path3091" />
              </g>
              <g
                 id="line2d_10-1">
                <g
                   id="g3096">
                  <use
                     style="fill:#ffffff;stroke:#ffffff;stroke-width:0.8"
                     x="321.84"
                     xlink:href="#m5292a95291"
                     y="320.39999"
                     id="use3094"
                     width="100%"
                     height="100%" />
                </g>
              </g>
            </g>
            <g
               id="xtick_6-0">
              <g
                 id="line2d_11-5">
                <path
                   clip-path="url(#p2129aff4dc)"
                   d="M 388.8,320.4 V 43.2"
                   style="fill:none;stroke:#b0b0b0;stroke-width:0.8;stroke-linecap:square"
                   id="path3100" />
              </g>
              <g
                 id="line2d_12-1">
                <g
                   id="g3105">
                  <use
                     style="fill:#ffffff;stroke:#ffffff;stroke-width:0.8"
                     x="388.79999"
                     xlink:href="#m5292a95291"
                     y="320.39999"
                     id="use3103"
                     width="100%"
                     height="100%" />
                </g>
              </g>
            </g>
            <g
               id="text_1-1">
              <!-- Tiempo -->
              <g
                 style="fill:#ffffff"
                 transform="matrix(0.14,0,0,-0.14,199.19031,341.51062)"
                 id="g3129">
                <defs
                   id="defs3115">
                  <path
                     d="m 3.515625,62.3125 v 6.578125 H 64.3125 V 62.3125 H 50.09375 L 38.375,62.40625 V 0 H 29.5 V 62.40625 L 17.671875,62.3125 Z"
                     id="path3314" />
                  <path
                     d="m 7.421875,58.984375 v 8.9375 h 8.984375 v -8.9375 z M 8.109375,0 v 44.484375 h 7.46875 V 0 Z"
                     id="path3316" />
                  <path
                     d="m 3.421875,22.609375 q 0,9.90625 6.03125,16.6875 6.03125,6.796875 14.125,6.796875 2.984375,0 5.6875,-0.953125 2.71875,-0.953125 5.46875,-3.15625 2.765625,-2.1875 4.5625,-6.59375 Q 41.109375,31 41.40625,24.90625 v -2.890625 h -31 Q 10.6875,14.5 14.984375,9.78125 19.28125,5.078125 25.203125,5.078125 q 7.609375,0 15.171875,5.515625 L 41.015625,4 q -7.609375,-5.078125 -15.8125,-5.125 -9.53125,0 -15.65625,7.046875 -6.125,7.0625 -6.125,16.6875 z m 7.46875,4.875 H 35.6875 q -0.578125,3.90625 -2.140625,6.609375 -1.5625,2.71875 -3.515625,3.859375 -1.953125,1.15625 -3.5,1.546875 -1.53125,0.390625 -2.953125,0.390625 -5.078125,0 -8.40625,-3.90625 -3.3125,-3.90625 -4.28125,-8.5 z"
                     id="path3318" />
                  <path
                     d="m 8.015625,0 v 45.015625 h 7.265625 v -7.03125 q 5.8125,7.53125 14.609375,7.53125 9.703125,0 12.6875,-8.109375 6.109375,8.109375 15.140625,8.109375 3.8125,0 6.546875,-1.25 2.734375,-1.25 4.0625,-2.90625 1.34375,-1.65625 2.09375,-4.25 0.765625,-2.59375 0.859375,-4.25 0.109375,-1.65625 0.109375,-4.046875 V 0 h -7.90625 v 28.078125 q 0,0.1875 0,0.609375 0,0.421875 -0.203125,1.609375 -0.1875,1.203125 -0.53125,2.25 -0.34375,1.046875 -1.0625,2.34375 -0.703125,1.296875 -1.703125,2.25 -1,0.953125 -2.59375,1.609375 -1.578125,0.65625 -3.578125,0.65625 -5.328125,0 -7.765625,-4.5 -2.4375,-4.484375 -2.4375,-10.875 V 0 h -7.8125 v 28.078125 q 0,1.703125 -0.0625,2.703125 -0.04687,1 -0.578125,2.859375 Q 34.625,35.5 33.671875,36.59375 q -0.953125,1.109375 -2.90625,1.953125 -1.953125,0.859375 -4.78125,0.859375 -5.328125,0 -7.75,-4.5 -2.40625,-4.484375 -2.40625,-10.875 V 0 Z"
                     id="path3320" />
                  <path
                     d="m 8.109375,-19.484375 v 63.96875 h 7.46875 V 39.59375 q 7.328125,5.921875 16.59375,5.921875 6.890625,0 11.359375,-6.921875 Q 48,31.6875 48,22.40625 48,12.109375 42.453125,5.484375 36.921875,-1.125 29.390625,-1.125 q -7.421875,0 -13.46875,5.71875 v -24.078125 z m 7.8125,32.078125 q 0,-2.1875 2.828125,-4.90625 2.828125,-2.703125 6.84375,-2.703125 5.609375,0 10.046875,4.796875 4.453125,4.8125 4.453125,12.4375 0,6.78125 -3.796875,11.828125 -3.78125,5.0625 -9.78125,5.0625 -1.125,0 -2.125,-0.15625 -1,-0.140625 -1.859375,-0.5 Q 21.6875,38.09375 20.953125,37.75 20.21875,37.40625 19.546875,36.96875 18.890625,36.53125 18.40625,36.109375 17.921875,35.6875 17.453125,35.203125 17,34.71875 16.75,34.390625 16.5,34.078125 16.21875,33.796875 L 15.921875,33.40625 Z"
                     id="path3322" />
                  <path
                     d="m 2.984375,22.125 q 0,10.109375 6.46875,17.03125 6.46875,6.9375 15.453125,6.9375 9.421875,0 15.71875,-7.25 6.296875,-7.25 6.296875,-16.828125 0,-9.90625 -6.625,-16.53125 Q 33.6875,-1.125 24.890625,-1.125 q -8.78125,0 -15.34375,6.65625 -6.5625,6.671875 -6.5625,16.59375 z m 7.8125,0.96875 q 0,-8.78125 4.234375,-13.28125 4.25,-4.484375 9.859375,-4.484375 5.625,0 9.875,4.53125 4.25,4.546875 4.25,13.234375 0,8.40625 -4.25,12.59375 -4.25,4.203125 -9.859375,4.203125 -5.515625,0 -9.8125,-4.203125 Q 10.796875,31.5 10.796875,23.09375 Z"
                     id="path3324" />
                </defs>
                <use
                   xlink:href="#CMUSansSerif-84-08"
                   id="use3117"
                   x="0"
                   y="0"
                   width="100%"
                   height="100%" />
                <use
                   x="67.96875"
                   xlink:href="#CMUSansSerif-105-5"
                   id="use3119"
                   y="0"
                   width="100%"
                   height="100%" />
                <use
                   x="91.845703"
                   xlink:href="#CMUSansSerif-101-0"
                   id="use3121"
                   y="0"
                   width="100%"
                   height="100%" />
                <use
                   x="136.23047"
                   xlink:href="#CMUSansSerif-109-64"
                   id="use3123"
                   y="0"
                   width="100%"
                   height="100%" />
                <use
                   x="215.625"
                   xlink:href="#CMUSansSerif-112-6"
                   id="use3125"
                   y="0"
                   width="100%"
                   height="100%" />
                <use
                   x="267.28516"
                   xlink:href="#CMUSansSerif-111-2"
                   id="use3127"
                   y="0"
                   width="100%"
                   height="100%" />
              </g>
            </g>
          </g>
          <g
             id="matplotlib.axis_2-5">
            <g
               id="ytick_1-8">
              <g
                 id="line2d_13-6">
                <path
                   clip-path="url(#p2129aff4dc)"
                   d="M 54,320.4 H 388.8"
                   style="fill:none;stroke:#b0b0b0;stroke-width:0.8;stroke-linecap:square"
                   id="path3133" />
              </g>
              <g
                 id="line2d_14-2">
                <defs
                   id="defs3137">
                  <path
                     d="M 0,0 H -3.5"
                     id="path3338"
                     style="stroke:#ffffff;stroke-width:0.8" />
                </defs>
                <g
                   id="g3141">
                  <use
                     style="fill:#ffffff;stroke:#ffffff;stroke-width:0.8"
                     x="54"
                     xlink:href="#m06c05f6e39"
                     y="320.39999"
                     id="use3139"
                     width="100%"
                     height="100%" />
                </g>
              </g>
            </g>
            <g
               id="ytick_2-8">
              <g
                 id="line2d_15-4">
                <path
                   clip-path="url(#p2129aff4dc)"
                   d="M 54,274.2 H 388.8"
                   style="fill:none;stroke:#b0b0b0;stroke-width:0.8;stroke-linecap:square"
                   id="path3145" />
              </g>
              <g
                 id="line2d_16-7">
                <g
                   id="g3150">
                  <use
                     style="fill:#ffffff;stroke:#ffffff;stroke-width:0.8"
                     x="54"
                     xlink:href="#m06c05f6e39"
                     y="274.20001"
                     id="use3148"
                     width="100%"
                     height="100%" />
                </g>
              </g>
            </g>
            <g
               id="ytick_3-2">
              <g
                 id="line2d_17-4">
                <path
                   clip-path="url(#p2129aff4dc)"
                   d="M 54,228 H 388.8"
                   style="fill:none;stroke:#b0b0b0;stroke-width:0.8;stroke-linecap:square"
                   id="path3154" />
              </g>
              <g
                 id="line2d_18-0">
                <g
                   id="g3159">
                  <use
                     style="fill:#ffffff;stroke:#ffffff;stroke-width:0.8"
                     x="54"
                     xlink:href="#m06c05f6e39"
                     y="228"
                     id="use3157"
                     width="100%"
                     height="100%" />
                </g>
              </g>
            </g>
            <g
               id="ytick_4-6">
              <g
                 id="line2d_19-2">
                <path
                   clip-path="url(#p2129aff4dc)"
                   d="M 54,181.8 H 388.8"
                   style="fill:none;stroke:#b0b0b0;stroke-width:0.8;stroke-linecap:square"
                   id="path3163" />
              </g>
              <g
                 id="line2d_20-9">
                <g
                   id="g3168">
                  <use
                     style="fill:#ffffff;stroke:#ffffff;stroke-width:0.8"
                     x="54"
                     xlink:href="#m06c05f6e39"
                     y="181.8"
                     id="use3166"
                     width="100%"
                     height="100%" />
                </g>
              </g>
            </g>
            <g
               id="ytick_5-9">
              <g
                 id="line2d_21-0">
                <path
                   clip-path="url(#p2129aff4dc)"
                   d="M 54,135.6 H 388.8"
                   style="fill:none;stroke:#b0b0b0;stroke-width:0.8;stroke-linecap:square"
                   id="path3172" />
              </g>
              <g
                 id="line2d_22-8">
                <g
                   id="g3177">
                  <use
                     style="fill:#ffffff;stroke:#ffffff;stroke-width:0.8"
                     x="54"
                     xlink:href="#m06c05f6e39"
                     y="135.60001"
                     id="use3175"
                     width="100%"
                     height="100%" />
                </g>
              </g>
            </g>
            <g
               id="ytick_6-1">
              <g
                 id="line2d_23-3">
                <path
                   clip-path="url(#p2129aff4dc)"
                   d="M 54,89.4 H 388.8"
                   style="fill:none;stroke:#b0b0b0;stroke-width:0.8;stroke-linecap:square"
                   id="path3181" />
              </g>
              <g
                 id="line2d_24-1">
                <g
                   id="g3186">
                  <use
                     style="fill:#ffffff;stroke:#ffffff;stroke-width:0.8"
                     x="54"
                     xlink:href="#m06c05f6e39"
                     y="89.400002"
                     id="use3184"
                     width="100%"
                     height="100%" />
                </g>
              </g>
            </g>
            <g
               id="ytick_7-1">
              <g
                 id="line2d_25-0">
                <path
                   clip-path="url(#p2129aff4dc)"
                   d="M 54,43.2 H 388.8"
                   style="fill:none;stroke:#b0b0b0;stroke-width:0.8;stroke-linecap:square"
                   id="path3190" />
              </g>
              <g
                 id="line2d_26-3">
                <g
                   id="g3195">
                  <use
                     style="fill:#ffffff;stroke:#ffffff;stroke-width:0.8"
                     x="54"
                     xlink:href="#m06c05f6e39"
                     y="43.200001"
                     id="use3193"
                     width="100%"
                     height="100%" />
                </g>
              </g>
            </g>
            <g
               id="text_2-4">
              <!-- Energía -->
              <g
                 style="fill:#ffffff"
                 transform="matrix(0,-0.14,-0.14,0,40.114687,203.62469)"
                 id="g3221">
                <defs
                   id="defs3205">
                  <path
                     d="m 9.421875,0 v 69.09375 h 44.6875 V 62.5 h -5.71875 L 45.90625,62.59375 H 21.921875 l -3.515625,0.109375 v -23.6875 H 51.421875 V 32.90625 H 18.40625 V 6.984375 h 8.5 l 2.390625,0.09375 H 48.6875 l 2.1875,0.09375 h 4.640625 V 0 Z"
                     id="path3381" />
                  <path
                     d="m 8.015625,0 v 45.015625 h 7.265625 v -7.03125 q 5.8125,7.53125 14.609375,7.53125 3.703125,0 6.359375,-1.109375 2.671875,-1.09375 4.0625,-2.703125 1.390625,-1.609375 2.140625,-4.0625 0.765625,-2.4375 0.953125,-4.34375 0.203125,-1.90625 0.203125,-4.484375 V 0 h -7.8125 v 28.078125 q 0,1.703125 -0.0625,2.703125 -0.04687,1 -0.578125,2.859375 Q 34.625,35.5 33.671875,36.59375 q -0.953125,1.109375 -2.90625,1.953125 -1.953125,0.859375 -4.78125,0.859375 -5.328125,0 -7.75,-4.5 -2.40625,-4.484375 -2.40625,-10.875 V 0 Z"
                     id="path3383" />
                  <path
                     d="m 8.109375,0 v 45.015625 h 6.984375 v -9.03125 q 1.21875,1.90625 2.890625,3.65625 1.6875,1.765625 5.734375,3.765625 4.0625,2 8.90625,2.109375 V 38.8125 q -2.59375,-0.09375 -5.203125,-0.953125 -2.609375,-0.84375 -5.46875,-2.703125 -2.859375,-1.859375 -4.625,-5.671875 -1.75,-3.796875 -1.75,-8.875 V 0 Z"
                     id="path3385" />
                  <path
                     d="m 2.6875,-7.078125 q 0,6.484375 6.390625,10.296875 -2.484375,3.625 -2.484375,7.578125 0,4.484375 2.921875,8.390625 v 0.09375 q -3.3125,4.296875 -3.3125,9.921875 0,7.078125 4.75,11.6875 4.765625,4.625 11.171875,4.625 5.078125,0 9.765625,-3.328125 L 31.6875,42.390625 q 7.421875,3.0625 15.71875,3.125 l 1.078125,-6.3125 Q 45.515625,39.5 42.578125,39.5 q -0.296875,0 -7.46875,-0.390625 l -0.921875,0.78125 q 3.90625,-5.3125 3.90625,-10.6875 0,-6.5 -4.59375,-11.40625 -4.59375,-4.90625 -11.375,-4.90625 -4.40625,0 -9.140625,3.03125 -1.125,-2.203125 -1.0625,-3.71875 0,-2 1.1875,-3.65625 1.203125,-1.65625 4.375,-1.65625 H 25 q 3.515625,0 5.953125,-0.25 2.453125,-0.25 6.109375,-1.109375 3.65625,-0.84375 6.09375,-3.09375 2.453125,-2.234375 3.421875,-5.765625 0.5,-2 0.546875,-3.65625 0,-5.8125 -6.53125,-9.71875 -6.515625,-3.90625 -15.6875,-3.90625 -9.28125,0 -15.75,3.90625 -6.46875,3.90625 -6.46875,9.625 z m 7.03125,0 q 0,-2.59375 2.6875,-4.4375 2.6875,-1.859375 5.984375,-2.609375 3.296875,-0.765625 6.421875,-0.765625 6.296875,0 10.78125,2.15625 4.5,2.140625 4.5,5.5625 0,6.875 -14.890625,6.875 h -6.3125 l -2.875,-0.09375 q -2.875,-0.296875 -4.59375,-2.296875 -1.703125,-2 -1.703125,-4.390625 z m 3.46875,36.28125 q 0,-4.78125 2.453125,-7.640625 2.46875,-2.859375 6.578125,-2.859375 3.421875,0 6.15625,2.4375 2.734375,2.4375 2.734375,8.15625 0,4.78125 -2.453125,7.640625 -2.4375,2.859375 -6.53125,2.859375 -3.421875,0 -6.1875,-2.453125 -2.75,-2.4375 -2.75,-8.140625 z"
                     id="path3387" />
                  <path
                     d="M 3.171875,50.984375 16.5,64.015625 h 7.765625 L 9.375,50.984375 Z M 8.109375,0 v 44.484375 h 7.46875 V 0 Z"
                     id="path3389" />
                  <path
                     d="m 4.390625,11.28125 q 0,3.703125 2.8125,6.46875 2.8125,2.765625 7.34375,4.09375 4.546875,1.34375 8.890625,2 4.34375,0.671875 8.734375,0.671875 V 27.875 q -0.1875,6.40625 -2.578125,9.234375 -2.5,2.984375 -6.296875,2.984375 -7.71875,0 -15,-5.078125 l -0.578125,6.6875 q 7.515625,4.390625 15.671875,4.390625 6.890625,0 11.546875,-4.546875 4.65625,-4.53125 5.046875,-11.03125 V 0 h -7.5625 V 3.515625 Q 32.03125,3.125 30.5625,2.21875 29.109375,1.3125 24.90625,0.09375 20.703125,-1.125 15.828125,-1.125 10.109375,-1.125 7.25,2.921875 4.390625,6.984375 4.390625,11.28125 Z M 11.71875,11.375 q 0,-2.6875 2.640625,-4.5 Q 17,5.078125 21,5.078125 q 4.296875,0 7.734375,1.796875 3.4375,1.8125 3.4375,6.109375 v 6.296875 q -3.0625,0 -6.265625,-0.390625 Q 22.703125,18.5 19.3125,17.6875 15.921875,16.890625 13.8125,15.234375 11.71875,13.578125 11.71875,11.375 Z"
                     id="path3391" />
                </defs>
                <use
                   xlink:href="#CMUSansSerif-69-0"
                   id="use3207"
                   x="0"
                   y="0"
                   width="100%"
                   height="100%" />
                <use
                   x="59.667969"
                   xlink:href="#CMUSansSerif-110-3"
                   id="use3209"
                   y="0"
                   width="100%"
                   height="100%" />
                <use
                   x="111.32812"
                   xlink:href="#CMUSansSerif-101-0"
                   id="use3211"
                   y="0"
                   width="100%"
                   height="100%" />
                <use
                   x="155.71289"
                   xlink:href="#CMUSansSerif-114-91"
                   id="use3213"
                   y="0"
                   width="100%"
                   height="100%" />
                <use
                   x="189.89258"
                   xlink:href="#CMUSansSerif-103-9"
                   id="use3215"
                   y="0"
                   width="100%"
                   height="100%" />
                <use
                   x="239.89258"
                   xlink:href="#CMUSansSerif-237-6"
                   id="use3217"
                   y="0"
                   width="100%"
                   height="100%" />
                <use
                   x="263.76953"
                   xlink:href="#CMUSansSerif-97-93"
                   id="use3219"
                   y="0"
                   width="100%"
                   height="100%" />
              </g>
            </g>
          </g>
          <g
             id="line2d_27-3">
            <path
               clip-path="url(#p2129aff4dc)"
               d="m 54,321.73577 14.99904,-20.25756 7.43256,-9.64899 6.29424,-7.81477 5.62464,-6.63691 5.22288,-5.82535 4.95504,-5.196 4.6872,-4.59873 4.55328,-4.15959 4.41936,-3.73935 4.3524,-3.39211 4.28544,-3.05793 4.21848,-2.7395 4.21848,-2.47623 4.21848,-2.22054 4.28544,-2.00397 4.3524,-1.78792 4.41936,-1.57515 4.55328,-1.38718 4.75416,-1.21398 4.95504,-1.0351 5.28984,-0.87569 5.6916,-0.71437 6.29424,-0.56189 7.16472,-0.41093 8.7048,-0.26604 11.98584,-0.12445 30.8016,-0.006 14.7312,0.15042 9.10656,0.30908 7.29864,0.4635 6.3612,0.62292 5.6916,0.77615 5.28984,0.94321 4.95504,1.10724 4.6872,1.2713 4.55328,1.46464 4.41936,1.65628 4.28544,1.84235 4.21848,2.0538 4.21848,2.30318 4.15152,2.51887 4.21848,2.82259 4.21848,3.0922 4.28544,3.41915 4.3524,3.75809 4.48632,4.1701 4.62024,4.59982 4.82112,5.115 5.08896,5.72544 5.49072,6.51827 6.0264,7.50744 6.96384,9.04484 8.97264,12.0453 4.48632,6.10625 v 0"
               style="fill:none;stroke:#8eb8e5;stroke-width:4;stroke-linecap:square"
               id="path3225" />
          </g>
          <g
             id="line2d_28-8">
            <path
               clip-path="url(#p2129aff4dc)"
               d="m 54,125.02423 16.53912,19.74192 8.23608,9.46877 6.96384,7.67309 6.22728,6.53679 5.75856,5.72953 5.49072,5.15175 5.22288,4.59842 5.022,4.13055 4.88808,3.73808 4.82112,3.4096 4.75416,3.09138 4.6872,2.78611 4.6872,2.53029 4.6872,2.28081 4.75416,2.06714 4.82112,1.8539 4.95504,1.66456 5.08896,1.47163 5.22288,1.27863 5.49072,1.11376 5.82552,0.95087 6.22728,0.78719 6.76296,0.62812 7.63344,0.48006 8.90568,0.33011 11.3832,0.18711 19.0836,0.0554 36.1584,-0.10609 11.18232,-0.26943 8.7048,-0.42725 7.43256,-0.58425 6.62904,-0.74136 6.09336,-0.90339 5.6916,-1.06723 5.3568,-1.22729 5.15592,-1.40705 5.022,-1.60217 4.88808,-1.79506 4.75416,-1.98225 4.6872,-2.19364 4.6872,-2.44035 4.6872,-2.69416 4.6872,-2.95285 4.75416,-3.26184 4.82112,-3.58205 4.88808,-3.91054 5.022,-4.30309 5.22288,-4.77047 0.067,-0.0631 v 0"
               style="fill:none;stroke:#f4d35e;stroke-width:4;stroke-linecap:square"
               id="path3228" />
          </g>
          <g
             id="line2d_29-0">
            <path
               clip-path="url(#p2129aff4dc)"
               d="m 54,88.06423 15.80256,19.96773 7.83432,9.52662 6.62904,7.71958 5.95944,6.60458 5.49072,5.76086 5.22288,5.16168 4.95504,4.59029 4.82112,4.16622 4.6872,3.75855 4.55328,3.37142 4.55328,3.09488 4.48632,2.78097 4.48632,2.51917 4.48632,2.26437 4.55328,2.04698 4.62024,1.83019 4.6872,1.61668 4.82112,1.42735 5.022,1.25281 5.22288,1.07312 5.55768,0.91301 5.95944,0.7515 6.56208,0.59919 7.43256,0.44847 8.77176,0.29875 11.58408,0.1574 22.96728,0.0334 26.65008,-0.11118 10.44576,-0.27246 8.16912,-0.42965 6.96384,-0.5837 6.22728,-0.7403 5.75856,-0.90659 5.3568,-1.066 5.08896,-1.23739 4.88808,-1.41661 4.75416,-1.61108 4.62024,-1.80221 4.48632,-1.98646 4.48632,-2.23078 4.41936,-2.44551 4.41936,-2.69867 4.48632,-3.00343 4.48632,-3.27172 4.55328,-3.59463 4.6872,-3.98529 4.82112,-4.39332 5.022,-4.88108 5.28984,-5.45821 5.62464,-6.13106 6.09336,-6.97897 1.20528,-1.41733 v 0"
               style="fill:none;stroke:#f49097;stroke-width:4;stroke-linecap:square"
               id="path3231" />
          </g>
          <g
             id="line2d_30-5">
            <path
               clip-path="url(#p2129aff4dc)"
               d="m 54,43.2 23.90472,19.261695 12.7224,9.958991 10.64664,8.058932 9.50832,6.923873 8.77176,6.115243 8.16912,5.427257 7.7004,4.853579 7.3656,4.38345 7.09776,3.96693 6.82992,3.5644 6.62904,3.21011 6.42816,2.86775 6.29424,2.56528 6.16032,2.27053 6.0264,1.98486 5.89248,1.70936 5.82552,1.46052 5.75856,1.21577 5.6916,0.97588 5.62464,0.74151 5.62464,0.51811 5.62464,0.29346 5.55768,0.0686 5.55768,-0.15161 5.62464,-0.37726 5.62464,-0.60151 5.62464,-0.82429 5.6916,-1.05883 5.75856,-1.29864 5.82552,-1.54304 5.89248,-1.79128 6.0264,-2.0668 6.09336,-2.3253 6.22728,-2.6142 6.42816,-2.94242 6.56208,-3.24962 6.76296,-3.59772 7.0308,-3.99423 7.29864,-4.40422 7.63344,-4.867785 8.0352,-5.389134 8.57088,-6.018364 9.30744,-6.81219 10.31184,-7.829881 11.91888,-9.338462 1.07136,-0.851309 v 0"
               style="fill:none;stroke:#9ae19d;stroke-width:4;stroke-linecap:square"
               id="path3234" />
          </g>
          <g
             id="patch_3-6">
            <path
               d="M 54,320.4 V 43.2"
               style="fill:none;stroke:#ffffff;stroke-width:0.8;stroke-linecap:square;stroke-linejoin:miter"
               id="path3237" />
          </g>
          <g
             id="patch_4-6">
            <path
               d="M 54,320.4 H 388.8"
               style="fill:none;stroke:#ffffff;stroke-width:0.8;stroke-linecap:square;stroke-linejoin:miter"
               id="path3240" />
          </g>
        </g>
      </g>
    </g>
  </g>
</svg>
