<?xml version="1.0" encoding="utf-8" standalone="no"?>
<!DOCTYPE svg PUBLIC "-//W3C//DTD SVG 1.1//EN"
  "http://www.w3.org/Graphics/SVG/1.1/DTD/svg11.dtd">
<!-- Created with matplotlib (https://matplotlib.org/) -->
<svg height="432pt" version="1.1" viewBox="0 0 432 432" width="432pt" xmlns="http://www.w3.org/2000/svg" xmlns:xlink="http://www.w3.org/1999/xlink">
 <metadata>
  <rdf:RDF xmlns:cc="http://creativecommons.org/ns#" xmlns:dc="http://purl.org/dc/elements/1.1/" xmlns:rdf="http://www.w3.org/1999/02/22-rdf-syntax-ns#">
   <cc:Work>
    <dc:type rdf:resource="http://purl.org/dc/dcmitype/StillImage"/>
    <dc:date>2021-01-29T19:07:04.331987</dc:date>
    <dc:format>image/svg+xml</dc:format>
    <dc:creator>
     <cc:Agent>
      <dc:title>Matplotlib v3.3.2, https://matplotlib.org/</dc:title>
     </cc:Agent>
    </dc:creator>
   </cc:Work>
  </rdf:RDF>
 </metadata>
 <defs>
  <style type="text/css">*{stroke-linecap:butt;stroke-linejoin:round;}</style>
 </defs>
 <g id="figure_1">
  <g id="patch_1">
   <path d="M 0 432 
L 432 432 
L 432 0 
L 0 0 
z
" style="fill:none;"/>
  </g>
  <g id="axes_1">
   <g id="patch_2">
    <path d="M 54 384.48 
L 388.8 384.48 
L 388.8 51.84 
L 54 51.84 
z
" style="fill:none;"/>
   </g>
   <g id="matplotlib.axis_1">
    <g id="xtick_1">
     <g id="line2d_1">
      <path clip-path="url(#pd4dbe0edff)" d="M 54 384.48 
L 54 51.84 
" style="fill:none;stroke:#b0b0b0;stroke-linecap:square;stroke-width:0.8;"/>
     </g>
     <g id="line2d_2">
      <defs>
       <path d="M 0 0 
L 0 3.5 
" id="m098dce5256" style="stroke:#ffffff;stroke-width:0.8;"/>
      </defs>
      <g>
       <use style="fill:#ffffff;stroke:#ffffff;stroke-width:0.8;" x="54" xlink:href="#m098dce5256" y="384.48"/>
      </g>
     </g>
     <g id="text_1">
      <!-- 0.0 -->
      <g style="fill:#ffffff;" transform="translate(47.610937 398.701875)scale(0.1 -0.1)">
       <defs>
        <path d="M 4.109375 31 
L 4.109375 32.71875 
Q 4.109375 36.625 4.25 39.5 
Q 4.390625 42.390625 5.1875 47.140625 
Q 6 51.90625 7.390625 55.25 
Q 8.796875 58.59375 11.6875 61.84375 
Q 14.59375 65.09375 18.609375 66.609375 
Q 21.6875 67.828125 24.90625 67.828125 
Q 27.6875 67.828125 30.296875 67.0625 
Q 32.90625 66.3125 35.8125 64.0625 
Q 38.71875 61.8125 40.859375 58.296875 
Q 43.015625 54.78125 44.40625 48.625 
Q 45.796875 42.484375 45.796875 34.515625 
L 45.796875 32.421875 
Q 45.796875 28.609375 45.65625 25.609375 
Q 45.515625 22.609375 44.703125 17.984375 
Q 43.890625 13.375 42.453125 10.03125 
Q 41.015625 6.6875 38.109375 3.53125 
Q 35.203125 0.390625 31.203125 -1.125 
Q 27.875 -2.25 24.90625 -2.203125 
Q 22.125 -2.203125 19.5625 -1.484375 
Q 17 -0.78125 14.03125 1.359375 
Q 11.078125 3.515625 8.984375 7 
Q 6.890625 10.5 5.5 16.703125 
Q 4.109375 22.90625 4.109375 31 
z
M 11.921875 31 
Q 11.921875 24.3125 12.8125 19.25 
Q 13.71875 14.203125 15.015625 11.34375 
Q 16.3125 8.5 18.15625 6.734375 
Q 20.015625 4.984375 21.59375 4.4375 
Q 23.1875 3.90625 25 3.90625 
Q 27.296875 3.90625 29.296875 4.953125 
Q 31.296875 6 33.390625 8.640625 
Q 35.5 11.28125 36.734375 17.03125 
Q 37.984375 22.796875 37.984375 31.109375 
L 37.984375 37.015625 
Q 37.984375 44.625 36.734375 49.796875 
Q 35.5 54.984375 33.34375 57.390625 
Q 31.203125 59.8125 29.203125 60.71875 
Q 27.203125 61.625 24.90625 61.625 
Q 22.609375 61.625 20.609375 60.71875 
Q 18.609375 59.8125 16.5 57.390625 
Q 14.40625 54.984375 13.15625 49.734375 
Q 11.921875 44.484375 11.921875 37.015625 
z
" id="CMUSansSerif-48"/>
        <path d="M 9.625 0 
L 9.625 8.40625 
L 18.015625 8.40625 
L 18.015625 0 
z
" id="CMUSansSerif-46"/>
       </defs>
       <use xlink:href="#CMUSansSerif-48"/>
       <use x="50" xlink:href="#CMUSansSerif-46"/>
       <use x="77.783203" xlink:href="#CMUSansSerif-48"/>
      </g>
     </g>
    </g>
    <g id="xtick_2">
     <g id="line2d_3">
      <path clip-path="url(#pd4dbe0edff)" d="M 120.96 384.48 
L 120.96 51.84 
" style="fill:none;stroke:#b0b0b0;stroke-linecap:square;stroke-width:0.8;"/>
     </g>
     <g id="line2d_4">
      <g>
       <use style="fill:#ffffff;stroke:#ffffff;stroke-width:0.8;" x="120.96" xlink:href="#m098dce5256" y="384.48"/>
      </g>
     </g>
     <g id="text_2">
      <!-- 0.2 -->
      <g style="fill:#ffffff;" transform="translate(114.570938 398.701875)scale(0.1 -0.1)">
       <defs>
        <path d="M 4.109375 51.421875 
Q 8.984375 67.828125 23.484375 67.828125 
Q 33.109375 67.828125 39.015625 61.5 
Q 44.921875 55.171875 44.921875 46.390625 
Q 44.921875 42.875 43.96875 39.984375 
Q 43.015625 37.109375 40.25 33.859375 
Q 37.5 30.609375 35.390625 28.609375 
Q 33.296875 26.609375 28.21875 22.125 
Q 25.53125 19.734375 12.109375 6.984375 
L 44.921875 7.078125 
L 44.921875 0 
L 4.890625 0 
L 4.890625 6.5 
L 17.921875 19.390625 
Q 18.703125 20.171875 21.359375 22.578125 
Q 24.03125 25 24.90625 25.84375 
Q 25.78125 26.703125 27.921875 28.84375 
Q 30.078125 31 30.875 32.140625 
Q 31.6875 33.296875 33.15625 35.25 
Q 34.625 37.203125 35.109375 38.6875 
Q 35.59375 40.1875 36.109375 42.140625 
Q 36.625 44.09375 36.625 46.09375 
Q 36.625 52.484375 32.5625 56.875 
Q 28.515625 61.28125 22.21875 61.28125 
Q 18.796875 61.28125 16.140625 59.734375 
Q 13.484375 58.203125 12.140625 55.953125 
Q 10.796875 53.71875 9.9375 51.46875 
Q 9.078125 49.21875 8.796875 47.609375 
L 8.40625 45.90625 
z
" id="CMUSansSerif-50"/>
       </defs>
       <use xlink:href="#CMUSansSerif-48"/>
       <use x="50" xlink:href="#CMUSansSerif-46"/>
       <use x="77.783203" xlink:href="#CMUSansSerif-50"/>
      </g>
     </g>
    </g>
    <g id="xtick_3">
     <g id="line2d_5">
      <path clip-path="url(#pd4dbe0edff)" d="M 187.92 384.48 
L 187.92 51.84 
" style="fill:none;stroke:#b0b0b0;stroke-linecap:square;stroke-width:0.8;"/>
     </g>
     <g id="line2d_6">
      <g>
       <use style="fill:#ffffff;stroke:#ffffff;stroke-width:0.8;" x="187.92" xlink:href="#m098dce5256" y="384.48"/>
      </g>
     </g>
     <g id="text_3">
      <!-- 0.4 -->
      <g style="fill:#ffffff;" transform="translate(181.530938 398.701875)scale(0.1 -0.1)">
       <defs>
        <path d="M 2.6875 17.09375 
Q 2.6875 17.09375 2.6875 21.921875 
Q 2.6875 23.140625 3.8125 25 
L 27.984375 65.484375 
L 37.203125 65.484375 
L 37.203125 23.1875 
L 47.125 23.1875 
L 47.125 17.09375 
L 37.203125 17.09375 
L 37.203125 0 
L 29.203125 0 
L 29.203125 17.09375 
z
M 10.5 23.1875 
L 29.78125 23.1875 
L 29.78125 61.8125 
Q 29.203125 58.109375 26.953125 53 
Q 24.703125 47.90625 22.703125 44.359375 
Q 20.703125 40.828125 13.921875 29.109375 
Q 11.71875 25.296875 10.5 23.1875 
z
" id="CMUSansSerif-52"/>
       </defs>
       <use xlink:href="#CMUSansSerif-48"/>
       <use x="50" xlink:href="#CMUSansSerif-46"/>
       <use x="77.783203" xlink:href="#CMUSansSerif-52"/>
      </g>
     </g>
    </g>
    <g id="xtick_4">
     <g id="line2d_7">
      <path clip-path="url(#pd4dbe0edff)" d="M 254.88 384.48 
L 254.88 51.84 
" style="fill:none;stroke:#b0b0b0;stroke-linecap:square;stroke-width:0.8;"/>
     </g>
     <g id="line2d_8">
      <g>
       <use style="fill:#ffffff;stroke:#ffffff;stroke-width:0.8;" x="254.88" xlink:href="#m098dce5256" y="384.48"/>
      </g>
     </g>
     <g id="text_4">
      <!-- 0.6 -->
      <g style="fill:#ffffff;" transform="translate(248.490938 398.701875)scale(0.1 -0.1)">
       <defs>
        <path d="M 4.203125 32.328125 
Q 4.203125 47.3125 11.796875 57.5625 
Q 19.390625 67.828125 30.90625 67.828125 
Q 36.078125 67.828125 41.609375 65.828125 
L 41.609375 59.8125 
Q 35.890625 61.921875 30.90625 61.921875 
Q 25.09375 61.921875 20.796875 57.859375 
Q 16.5 53.8125 14.6875 48.65625 
Q 12.890625 43.5 12.59375 37.984375 
Q 15.671875 41.890625 20.1875 44.03125 
Q 24.703125 46.1875 29.5 46.1875 
Q 36.078125 46.1875 40.375 40.09375 
Q 45.703125 32.671875 45.703125 22.40625 
Q 45.703125 11.328125 38.8125 4 
Q 33.015625 -2.203125 25.203125 -2.203125 
Q 22.40625 -2.203125 19.75 -1.390625 
Q 17.09375 -0.59375 14.1875 1.703125 
Q 11.28125 4 9.125 7.640625 
Q 6.984375 11.28125 5.59375 17.65625 
Q 4.203125 24.03125 4.203125 32.328125 
z
M 12.703125 22.015625 
Q 14.59375 4 25.09375 4 
Q 30.171875 4 33.125 7.4375 
Q 36.078125 10.890625 37.015625 15.09375 
Q 37.5 17.28125 37.5 21.78125 
Q 37.5 30.46875 34.71875 34.90625 
Q 31.390625 40.09375 25.59375 40.09375 
Q 19.96875 40.09375 16.375 35.546875 
Q 12.796875 31 12.796875 24.703125 
Q 12.796875 23.828125 12.984375 22.015625 
z
" id="CMUSansSerif-54"/>
       </defs>
       <use xlink:href="#CMUSansSerif-48"/>
       <use x="50" xlink:href="#CMUSansSerif-46"/>
       <use x="77.783203" xlink:href="#CMUSansSerif-54"/>
      </g>
     </g>
    </g>
    <g id="xtick_5">
     <g id="line2d_9">
      <path clip-path="url(#pd4dbe0edff)" d="M 321.84 384.48 
L 321.84 51.84 
" style="fill:none;stroke:#b0b0b0;stroke-linecap:square;stroke-width:0.8;"/>
     </g>
     <g id="line2d_10">
      <g>
       <use style="fill:#ffffff;stroke:#ffffff;stroke-width:0.8;" x="321.84" xlink:href="#m098dce5256" y="384.48"/>
      </g>
     </g>
     <g id="text_5">
      <!-- 0.8 -->
      <g style="fill:#ffffff;" transform="translate(315.450938 398.701875)scale(0.1 -0.1)">
       <defs>
        <path d="M 4.109375 18.015625 
Q 4.109375 23.640625 7.5 28.21875 
Q 10.890625 32.8125 18.015625 35.40625 
Q 13.234375 36.921875 9.375 40.75 
Q 5.515625 44.578125 5.515625 50.296875 
Q 5.515625 57.28125 11.109375 62.546875 
Q 16.703125 67.828125 24.90625 67.828125 
Q 33.203125 67.828125 38.734375 62.5 
Q 44.28125 57.171875 44.28125 50.296875 
Q 44.28125 45.609375 41.1875 41.65625 
Q 38.09375 37.703125 31.78125 35.40625 
Q 37.3125 33.6875 41.5 29.140625 
Q 45.703125 24.609375 45.703125 17.921875 
Q 45.703125 9.90625 39.6875 3.84375 
Q 33.6875 -2.203125 24.90625 -2.203125 
Q 16.21875 -2.203125 10.15625 3.796875 
Q 4.109375 9.8125 4.109375 18.015625 
z
M 12.203125 18.109375 
Q 12.203125 11.71875 15.6875 7.859375 
Q 19.1875 4 24.90625 4 
Q 30.421875 4 34 7.8125 
Q 37.59375 11.625 37.59375 18.21875 
Q 37.59375 24.515625 34.046875 28.421875 
Q 30.515625 32.328125 24.90625 32.328125 
Q 20.015625 32.328125 16.109375 28.765625 
Q 12.203125 25.203125 12.203125 18.109375 
z
M 12.5 50.203125 
Q 12.5 44.875 15.9375 41.671875 
Q 19.390625 38.484375 24.8125 38.484375 
Q 30.421875 38.484375 33.859375 41.75 
Q 37.3125 45.015625 37.3125 50.203125 
Q 37.3125 55.515625 33.859375 58.71875 
Q 30.421875 61.921875 24.90625 61.921875 
Q 19.28125 61.921875 15.890625 58.640625 
Q 12.5 55.375 12.5 50.203125 
z
" id="CMUSansSerif-56"/>
       </defs>
       <use xlink:href="#CMUSansSerif-48"/>
       <use x="50" xlink:href="#CMUSansSerif-46"/>
       <use x="77.783203" xlink:href="#CMUSansSerif-56"/>
      </g>
     </g>
    </g>
    <g id="xtick_6">
     <g id="line2d_11">
      <path clip-path="url(#pd4dbe0edff)" d="M 388.8 384.48 
L 388.8 51.84 
" style="fill:none;stroke:#b0b0b0;stroke-linecap:square;stroke-width:0.8;"/>
     </g>
     <g id="line2d_12">
      <g>
       <use style="fill:#ffffff;stroke:#ffffff;stroke-width:0.8;" x="388.8" xlink:href="#m098dce5256" y="384.48"/>
      </g>
     </g>
     <g id="text_6">
      <!-- 1.0 -->
      <g style="fill:#ffffff;" transform="translate(382.410937 398.701875)scale(0.1 -0.1)">
       <defs>
        <path d="M 8.984375 55.421875 
L 8.984375 61.1875 
Q 21 61.1875 28.078125 67.828125 
L 29.984375 67.828125 
L 29.984375 5.90625 
L 42.484375 5.90625 
L 42.484375 0 
L 9.515625 0 
L 9.515625 5.90625 
L 22.015625 5.90625 
L 22.015625 57.71875 
Q 16.0625 55.421875 8.984375 55.421875 
z
" id="CMUSansSerif-49"/>
       </defs>
       <use xlink:href="#CMUSansSerif-49"/>
       <use x="50" xlink:href="#CMUSansSerif-46"/>
       <use x="77.783203" xlink:href="#CMUSansSerif-48"/>
      </g>
     </g>
    </g>
    <g id="text_7">
     <!-- Tiempo -->
     <g style="fill:#ffffff;" transform="translate(205.535938 411.872187)scale(0.1 -0.1)">
      <defs>
       <path d="M 3.515625 62.3125 
L 3.515625 68.890625 
L 64.3125 68.890625 
L 64.3125 62.3125 
L 50.09375 62.3125 
L 38.375 62.40625 
L 38.375 0 
L 29.5 0 
L 29.5 62.40625 
L 17.671875 62.3125 
z
" id="CMUSansSerif-84"/>
       <path d="M 7.421875 58.984375 
L 7.421875 67.921875 
L 16.40625 67.921875 
L 16.40625 58.984375 
z
M 8.109375 0 
L 8.109375 44.484375 
L 15.578125 44.484375 
L 15.578125 0 
z
" id="CMUSansSerif-105"/>
       <path d="M 3.421875 22.609375 
Q 3.421875 32.515625 9.453125 39.296875 
Q 15.484375 46.09375 23.578125 46.09375 
Q 26.5625 46.09375 29.265625 45.140625 
Q 31.984375 44.1875 34.734375 41.984375 
Q 37.5 39.796875 39.296875 35.390625 
Q 41.109375 31 41.40625 24.90625 
L 41.40625 22.015625 
L 10.40625 22.015625 
Q 10.6875 14.5 14.984375 9.78125 
Q 19.28125 5.078125 25.203125 5.078125 
Q 32.8125 5.078125 40.375 10.59375 
L 41.015625 4 
Q 33.40625 -1.078125 25.203125 -1.125 
Q 15.671875 -1.125 9.546875 5.921875 
Q 3.421875 12.984375 3.421875 22.609375 
z
M 10.890625 27.484375 
L 35.6875 27.484375 
Q 35.109375 31.390625 33.546875 34.09375 
Q 31.984375 36.8125 30.03125 37.953125 
Q 28.078125 39.109375 26.53125 39.5 
Q 25 39.890625 23.578125 39.890625 
Q 18.5 39.890625 15.171875 35.984375 
Q 11.859375 32.078125 10.890625 27.484375 
z
" id="CMUSansSerif-101"/>
       <path d="M 8.015625 0 
L 8.015625 45.015625 
L 15.28125 45.015625 
L 15.28125 37.984375 
Q 21.09375 45.515625 29.890625 45.515625 
Q 39.59375 45.515625 42.578125 37.40625 
Q 48.6875 45.515625 57.71875 45.515625 
Q 61.53125 45.515625 64.265625 44.265625 
Q 67 43.015625 68.328125 41.359375 
Q 69.671875 39.703125 70.421875 37.109375 
Q 71.1875 34.515625 71.28125 32.859375 
Q 71.390625 31.203125 71.390625 28.8125 
L 71.390625 0 
L 63.484375 0 
L 63.484375 28.078125 
Q 63.484375 28.265625 63.484375 28.6875 
Q 63.484375 29.109375 63.28125 30.296875 
Q 63.09375 31.5 62.75 32.546875 
Q 62.40625 33.59375 61.6875 34.890625 
Q 60.984375 36.1875 59.984375 37.140625 
Q 58.984375 38.09375 57.390625 38.75 
Q 55.8125 39.40625 53.8125 39.40625 
Q 48.484375 39.40625 46.046875 34.90625 
Q 43.609375 30.421875 43.609375 24.03125 
L 43.609375 0 
L 35.796875 0 
L 35.796875 28.078125 
Q 35.796875 29.78125 35.734375 30.78125 
Q 35.6875 31.78125 35.15625 33.640625 
Q 34.625 35.5 33.671875 36.59375 
Q 32.71875 37.703125 30.765625 38.546875 
Q 28.8125 39.40625 25.984375 39.40625 
Q 20.65625 39.40625 18.234375 34.90625 
Q 15.828125 30.421875 15.828125 24.03125 
L 15.828125 0 
z
" id="CMUSansSerif-109"/>
       <path d="M 8.109375 -19.484375 
L 8.109375 44.484375 
L 15.578125 44.484375 
L 15.578125 39.59375 
Q 22.90625 45.515625 32.171875 45.515625 
Q 39.0625 45.515625 43.53125 38.59375 
Q 48 31.6875 48 22.40625 
Q 48 12.109375 42.453125 5.484375 
Q 36.921875 -1.125 29.390625 -1.125 
Q 21.96875 -1.125 15.921875 4.59375 
L 15.921875 -19.484375 
z
M 15.921875 12.59375 
Q 15.921875 10.40625 18.75 7.6875 
Q 21.578125 4.984375 25.59375 4.984375 
Q 31.203125 4.984375 35.640625 9.78125 
Q 40.09375 14.59375 40.09375 22.21875 
Q 40.09375 29 36.296875 34.046875 
Q 32.515625 39.109375 26.515625 39.109375 
Q 25.390625 39.109375 24.390625 38.953125 
Q 23.390625 38.8125 22.53125 38.453125 
Q 21.6875 38.09375 20.953125 37.75 
Q 20.21875 37.40625 19.546875 36.96875 
Q 18.890625 36.53125 18.40625 36.109375 
Q 17.921875 35.6875 17.453125 35.203125 
Q 17 34.71875 16.75 34.390625 
Q 16.5 34.078125 16.21875 33.796875 
L 15.921875 33.40625 
z
" id="CMUSansSerif-112"/>
       <path d="M 2.984375 22.125 
Q 2.984375 32.234375 9.453125 39.15625 
Q 15.921875 46.09375 24.90625 46.09375 
Q 34.328125 46.09375 40.625 38.84375 
Q 46.921875 31.59375 46.921875 22.015625 
Q 46.921875 12.109375 40.296875 5.484375 
Q 33.6875 -1.125 24.890625 -1.125 
Q 16.109375 -1.125 9.546875 5.53125 
Q 2.984375 12.203125 2.984375 22.125 
z
M 10.796875 23.09375 
Q 10.796875 14.3125 15.03125 9.8125 
Q 19.28125 5.328125 24.890625 5.328125 
Q 30.515625 5.328125 34.765625 9.859375 
Q 39.015625 14.40625 39.015625 23.09375 
Q 39.015625 31.5 34.765625 35.6875 
Q 30.515625 39.890625 24.90625 39.890625 
Q 19.390625 39.890625 15.09375 35.6875 
Q 10.796875 31.5 10.796875 23.09375 
z
" id="CMUSansSerif-111"/>
      </defs>
      <use xlink:href="#CMUSansSerif-84"/>
      <use x="67.96875" xlink:href="#CMUSansSerif-105"/>
      <use x="91.845703" xlink:href="#CMUSansSerif-101"/>
      <use x="136.230469" xlink:href="#CMUSansSerif-109"/>
      <use x="215.625" xlink:href="#CMUSansSerif-112"/>
      <use x="267.285156" xlink:href="#CMUSansSerif-111"/>
     </g>
    </g>
   </g>
   <g id="matplotlib.axis_2">
    <g id="ytick_1">
     <g id="line2d_13">
      <path clip-path="url(#pd4dbe0edff)" d="M 54 384.48 
L 388.8 384.48 
" style="fill:none;stroke:#b0b0b0;stroke-linecap:square;stroke-width:0.8;"/>
     </g>
     <g id="line2d_14">
      <defs>
       <path d="M 0 0 
L -3.5 0 
" id="m724d794e99" style="stroke:#ffffff;stroke-width:0.8;"/>
      </defs>
      <g>
       <use style="fill:#ffffff;stroke:#ffffff;stroke-width:0.8;" x="54" xlink:href="#m724d794e99" y="384.48"/>
      </g>
     </g>
     <g id="text_8">
      <!-- 0.0 -->
      <g style="fill:#ffffff;" transform="translate(34.221875 388.090937)scale(0.1 -0.1)">
       <use xlink:href="#CMUSansSerif-48"/>
       <use x="50" xlink:href="#CMUSansSerif-46"/>
       <use x="77.783203" xlink:href="#CMUSansSerif-48"/>
      </g>
     </g>
    </g>
    <g id="ytick_2">
     <g id="line2d_15">
      <path clip-path="url(#pd4dbe0edff)" d="M 54 317.952 
L 388.8 317.952 
" style="fill:none;stroke:#b0b0b0;stroke-linecap:square;stroke-width:0.8;"/>
     </g>
     <g id="line2d_16">
      <g>
       <use style="fill:#ffffff;stroke:#ffffff;stroke-width:0.8;" x="54" xlink:href="#m724d794e99" y="317.952"/>
      </g>
     </g>
     <g id="text_9">
      <!-- 0.2 -->
      <g style="fill:#ffffff;" transform="translate(34.221875 321.562937)scale(0.1 -0.1)">
       <use xlink:href="#CMUSansSerif-48"/>
       <use x="50" xlink:href="#CMUSansSerif-46"/>
       <use x="77.783203" xlink:href="#CMUSansSerif-50"/>
      </g>
     </g>
    </g>
    <g id="ytick_3">
     <g id="line2d_17">
      <path clip-path="url(#pd4dbe0edff)" d="M 54 251.424 
L 388.8 251.424 
" style="fill:none;stroke:#b0b0b0;stroke-linecap:square;stroke-width:0.8;"/>
     </g>
     <g id="line2d_18">
      <g>
       <use style="fill:#ffffff;stroke:#ffffff;stroke-width:0.8;" x="54" xlink:href="#m724d794e99" y="251.424"/>
      </g>
     </g>
     <g id="text_10">
      <!-- 0.4 -->
      <g style="fill:#ffffff;" transform="translate(34.221875 255.034937)scale(0.1 -0.1)">
       <use xlink:href="#CMUSansSerif-48"/>
       <use x="50" xlink:href="#CMUSansSerif-46"/>
       <use x="77.783203" xlink:href="#CMUSansSerif-52"/>
      </g>
     </g>
    </g>
    <g id="ytick_4">
     <g id="line2d_19">
      <path clip-path="url(#pd4dbe0edff)" d="M 54 184.896 
L 388.8 184.896 
" style="fill:none;stroke:#b0b0b0;stroke-linecap:square;stroke-width:0.8;"/>
     </g>
     <g id="line2d_20">
      <g>
       <use style="fill:#ffffff;stroke:#ffffff;stroke-width:0.8;" x="54" xlink:href="#m724d794e99" y="184.896"/>
      </g>
     </g>
     <g id="text_11">
      <!-- 0.6 -->
      <g style="fill:#ffffff;" transform="translate(34.221875 188.506937)scale(0.1 -0.1)">
       <use xlink:href="#CMUSansSerif-48"/>
       <use x="50" xlink:href="#CMUSansSerif-46"/>
       <use x="77.783203" xlink:href="#CMUSansSerif-54"/>
      </g>
     </g>
    </g>
    <g id="ytick_5">
     <g id="line2d_21">
      <path clip-path="url(#pd4dbe0edff)" d="M 54 118.368 
L 388.8 118.368 
" style="fill:none;stroke:#b0b0b0;stroke-linecap:square;stroke-width:0.8;"/>
     </g>
     <g id="line2d_22">
      <g>
       <use style="fill:#ffffff;stroke:#ffffff;stroke-width:0.8;" x="54" xlink:href="#m724d794e99" y="118.368"/>
      </g>
     </g>
     <g id="text_12">
      <!-- 0.8 -->
      <g style="fill:#ffffff;" transform="translate(34.221875 121.978937)scale(0.1 -0.1)">
       <use xlink:href="#CMUSansSerif-48"/>
       <use x="50" xlink:href="#CMUSansSerif-46"/>
       <use x="77.783203" xlink:href="#CMUSansSerif-56"/>
      </g>
     </g>
    </g>
    <g id="ytick_6">
     <g id="line2d_23">
      <path clip-path="url(#pd4dbe0edff)" d="M 54 51.84 
L 388.8 51.84 
" style="fill:none;stroke:#b0b0b0;stroke-linecap:square;stroke-width:0.8;"/>
     </g>
     <g id="line2d_24">
      <g>
       <use style="fill:#ffffff;stroke:#ffffff;stroke-width:0.8;" x="54" xlink:href="#m724d794e99" y="51.84"/>
      </g>
     </g>
     <g id="text_13">
      <!-- 1.0 -->
      <g style="fill:#ffffff;" transform="translate(34.221875 55.450937)scale(0.1 -0.1)">
       <use xlink:href="#CMUSansSerif-49"/>
       <use x="50" xlink:href="#CMUSansSerif-46"/>
       <use x="77.783203" xlink:href="#CMUSansSerif-48"/>
      </g>
     </g>
    </g>
    <g id="text_14">
     <!-- Energía -->
     <g style="fill:#ffffff;" transform="translate(28.160937 233.749062)rotate(-90)scale(0.1 -0.1)">
      <defs>
       <path d="M 9.421875 0 
L 9.421875 69.09375 
L 54.109375 69.09375 
L 54.109375 62.5 
L 48.390625 62.5 
L 45.90625 62.59375 
L 21.921875 62.59375 
L 18.40625 62.703125 
L 18.40625 39.015625 
L 51.421875 39.015625 
L 51.421875 32.90625 
L 18.40625 32.90625 
L 18.40625 6.984375 
L 26.90625 6.984375 
L 29.296875 7.078125 
L 48.6875 7.078125 
L 50.875 7.171875 
L 55.515625 7.171875 
L 55.515625 0 
z
" id="CMUSansSerif-69"/>
       <path d="M 8.015625 0 
L 8.015625 45.015625 
L 15.28125 45.015625 
L 15.28125 37.984375 
Q 21.09375 45.515625 29.890625 45.515625 
Q 33.59375 45.515625 36.25 44.40625 
Q 38.921875 43.3125 40.3125 41.703125 
Q 41.703125 40.09375 42.453125 37.640625 
Q 43.21875 35.203125 43.40625 33.296875 
Q 43.609375 31.390625 43.609375 28.8125 
L 43.609375 0 
L 35.796875 0 
L 35.796875 28.078125 
Q 35.796875 29.78125 35.734375 30.78125 
Q 35.6875 31.78125 35.15625 33.640625 
Q 34.625 35.5 33.671875 36.59375 
Q 32.71875 37.703125 30.765625 38.546875 
Q 28.8125 39.40625 25.984375 39.40625 
Q 20.65625 39.40625 18.234375 34.90625 
Q 15.828125 30.421875 15.828125 24.03125 
L 15.828125 0 
z
" id="CMUSansSerif-110"/>
       <path d="M 8.109375 0 
L 8.109375 45.015625 
L 15.09375 45.015625 
L 15.09375 35.984375 
Q 16.3125 37.890625 17.984375 39.640625 
Q 19.671875 41.40625 23.71875 43.40625 
Q 27.78125 45.40625 32.625 45.515625 
L 32.625 38.8125 
Q 30.03125 38.71875 27.421875 37.859375 
Q 24.8125 37.015625 21.953125 35.15625 
Q 19.09375 33.296875 17.328125 29.484375 
Q 15.578125 25.6875 15.578125 20.609375 
L 15.578125 0 
z
" id="CMUSansSerif-114"/>
       <path d="M 2.6875 -7.078125 
Q 2.6875 -0.59375 9.078125 3.21875 
Q 6.59375 6.84375 6.59375 10.796875 
Q 6.59375 15.28125 9.515625 19.1875 
L 9.515625 19.28125 
Q 6.203125 23.578125 6.203125 29.203125 
Q 6.203125 36.28125 10.953125 40.890625 
Q 15.71875 45.515625 22.125 45.515625 
Q 27.203125 45.515625 31.890625 42.1875 
L 31.6875 42.390625 
Q 39.109375 45.453125 47.40625 45.515625 
L 48.484375 39.203125 
Q 45.515625 39.5 42.578125 39.5 
Q 42.28125 39.5 35.109375 39.109375 
L 34.1875 39.890625 
Q 38.09375 34.578125 38.09375 29.203125 
Q 38.09375 22.703125 33.5 17.796875 
Q 28.90625 12.890625 22.125 12.890625 
Q 17.71875 12.890625 12.984375 15.921875 
Q 11.859375 13.71875 11.921875 12.203125 
Q 11.921875 10.203125 13.109375 8.546875 
Q 14.3125 6.890625 17.484375 6.890625 
L 25 6.890625 
Q 28.515625 6.890625 30.953125 6.640625 
Q 33.40625 6.390625 37.0625 5.53125 
Q 40.71875 4.6875 43.15625 2.4375 
Q 45.609375 0.203125 46.578125 -3.328125 
Q 47.078125 -5.328125 47.125 -6.984375 
Q 47.125 -12.796875 40.59375 -16.703125 
Q 34.078125 -20.609375 24.90625 -20.609375 
Q 15.625 -20.609375 9.15625 -16.703125 
Q 2.6875 -12.796875 2.6875 -7.078125 
z
M 9.71875 -7.078125 
Q 9.71875 -9.671875 12.40625 -11.515625 
Q 15.09375 -13.375 18.390625 -14.125 
Q 21.6875 -14.890625 24.8125 -14.890625 
Q 31.109375 -14.890625 35.59375 -12.734375 
Q 40.09375 -10.59375 40.09375 -7.171875 
Q 40.09375 -0.296875 25.203125 -0.296875 
L 18.890625 -0.296875 
L 16.015625 -0.390625 
Q 13.140625 -0.6875 11.421875 -2.6875 
Q 9.71875 -4.6875 9.71875 -7.078125 
z
M 13.1875 29.203125 
Q 13.1875 24.421875 15.640625 21.5625 
Q 18.109375 18.703125 22.21875 18.703125 
Q 25.640625 18.703125 28.375 21.140625 
Q 31.109375 23.578125 31.109375 29.296875 
Q 31.109375 34.078125 28.65625 36.9375 
Q 26.21875 39.796875 22.125 39.796875 
Q 18.703125 39.796875 15.9375 37.34375 
Q 13.1875 34.90625 13.1875 29.203125 
z
" id="CMUSansSerif-103"/>
       <path d="M 3.171875 50.984375 
L 16.5 64.015625 
L 24.265625 64.015625 
L 9.375 50.984375 
z
M 8.109375 0 
L 8.109375 44.484375 
L 15.578125 44.484375 
L 15.578125 0 
z
" id="CMUSansSerif-237"/>
       <path d="M 4.390625 11.28125 
Q 4.390625 14.984375 7.203125 17.75 
Q 10.015625 20.515625 14.546875 21.84375 
Q 19.09375 23.1875 23.4375 23.84375 
Q 27.78125 24.515625 32.171875 24.515625 
L 32.171875 27.875 
Q 31.984375 34.28125 29.59375 37.109375 
Q 27.09375 40.09375 23.296875 40.09375 
Q 15.578125 40.09375 8.296875 35.015625 
L 7.71875 41.703125 
Q 15.234375 46.09375 23.390625 46.09375 
Q 30.28125 46.09375 34.9375 41.546875 
Q 39.59375 37.015625 39.984375 30.515625 
L 39.984375 0 
L 32.421875 0 
L 32.421875 3.515625 
Q 32.03125 3.125 30.5625 2.21875 
Q 29.109375 1.3125 24.90625 0.09375 
Q 20.703125 -1.125 15.828125 -1.125 
Q 10.109375 -1.125 7.25 2.921875 
Q 4.390625 6.984375 4.390625 11.28125 
z
M 11.71875 11.375 
Q 11.71875 8.6875 14.359375 6.875 
Q 17 5.078125 21 5.078125 
Q 25.296875 5.078125 28.734375 6.875 
Q 32.171875 8.6875 32.171875 12.984375 
L 32.171875 19.28125 
Q 29.109375 19.28125 25.90625 18.890625 
Q 22.703125 18.5 19.3125 17.6875 
Q 15.921875 16.890625 13.8125 15.234375 
Q 11.71875 13.578125 11.71875 11.375 
z
" id="CMUSansSerif-97"/>
      </defs>
      <use xlink:href="#CMUSansSerif-69"/>
      <use x="59.667969" xlink:href="#CMUSansSerif-110"/>
      <use x="111.328125" xlink:href="#CMUSansSerif-101"/>
      <use x="155.712891" xlink:href="#CMUSansSerif-114"/>
      <use x="189.892578" xlink:href="#CMUSansSerif-103"/>
      <use x="239.892578" xlink:href="#CMUSansSerif-237"/>
      <use x="263.769531" xlink:href="#CMUSansSerif-97"/>
     </g>
    </g>
   </g>
   <g id="line2d_25">
    <path clip-path="url(#pd4dbe0edff)" d="M 54 367.848 
L 65.718 363.288976 
L 77.1012 358.621007 
L 88.1496 353.852898 
L 99.198 348.838707 
L 109.9116 343.729448 
L 120.2904 338.536329 
L 130.6692 333.091822 
L 140.7132 327.572133 
L 150.7572 321.794065 
L 160.4664 315.951632 
L 170.1756 309.845033 
L 179.55 303.687146 
L 188.9244 297.260637 
L 197.964 290.798282 
L 207.0036 284.064299 
L 216.0432 277.047271 
L 224.748 270.011517 
L 233.4528 262.691206 
L 242.1576 255.074829 
L 250.5276 247.461042 
L 258.8976 239.551389 
L 267.2676 231.334375 
L 275.6376 222.798055 
L 283.6728 214.291271 
L 291.708 205.467388 
L 299.7432 196.314584 
L 307.7784 186.8206 
L 315.8136 176.972716 
L 323.514 167.190871 
L 331.2144 157.059857 
L 338.9148 146.567211 
L 346.6152 135.700024 
L 354.3156 124.444927 
L 362.016 112.788073 
L 369.7164 100.71512 
L 377.4168 88.211217 
L 384.7824 75.833529 
L 388.4652 69.487213 
L 388.4652 69.487213 
" style="fill:none;stroke:#8eb8e5;stroke-linecap:square;stroke-width:3.5;"/>
   </g>
   <g id="line2d_26">
    <path clip-path="url(#pd4dbe0edff)" d="M 54 68.472 
L 59.3568 82.905862 
L 64.7136 96.713413 
L 70.0704 109.921828 
L 75.4272 122.557106 
L 80.784 134.644116 
L 86.1408 146.206648 
L 91.4976 157.267461 
L 96.8544 167.848325 
L 102.546 178.587889 
L 108.2376 188.832999 
L 113.9292 198.60642 
L 119.6208 207.929868 
L 125.3124 216.82406 
L 131.004 225.308759 
L 136.6956 233.40282 
L 142.3872 241.124226 
L 148.0788 248.490135 
L 154.1052 255.92003 
L 160.1316 262.988226 
L 166.158 269.712329 
L 172.1844 276.109091 
L 178.2108 282.194449 
L 184.572 288.296784 
L 190.9332 294.085974 
L 197.2944 299.578088 
L 203.6556 304.78837 
L 210.3516 309.984294 
L 217.0476 314.899936 
L 224.0784 319.776242 
L 231.1092 324.376734 
L 238.14 328.717015 
L 245.5056 333.000908 
L 252.8712 337.031307 
L 260.5716 340.990135 
L 268.272 344.704392 
L 276.3072 348.335717 
L 284.6772 351.869986 
L 293.0472 355.167577 
L 301.752 358.363027 
L 310.7916 361.446362 
L 320.166 364.409209 
L 329.8752 367.244776 
L 339.9192 369.947798 
L 350.298 372.514486 
L 361.3464 375.014895 
L 372.7296 377.362622 
L 384.7824 379.618659 
L 388.4652 380.264278 
L 388.4652 380.264278 
" style="fill:none;stroke:#f4d35e;stroke-linecap:square;stroke-width:3.5;"/>
   </g>
   <g id="patch_3">
    <path d="M 54 384.48 
L 54 51.84 
" style="fill:none;stroke:#ffffff;stroke-linecap:square;stroke-linejoin:miter;stroke-width:0.8;"/>
   </g>
   <g id="patch_4">
    <path d="M 54 384.48 
L 388.8 384.48 
" style="fill:none;stroke:#ffffff;stroke-linecap:square;stroke-linejoin:miter;stroke-width:0.8;"/>
   </g>
   <g id="text_15">
    <!-- Amplitud de los campos  -->
    <g style="fill:#f4d35e;" transform="translate(137.7 203.299437)scale(0.14 -0.14)">
     <defs>
      <path d="M 2.6875 0 
L 28.8125 69.390625 
L 37.703125 69.390625 
L 63.71875 0 
L 54.5 0 
L 46.78125 20.40625 
L 17.828125 20.40625 
L 10.203125 0 
z
M 19.921875 25.984375 
L 44.671875 25.984375 
Q 32.859375 58.6875 32.328125 62.40625 
Q 31 56.296875 19.921875 25.984375 
z
" id="CMUSansSerif-65"/>
      <path d="M 8.109375 0 
L 8.109375 72.21875 
L 15.578125 72.21875 
L 15.578125 0 
z
" id="CMUSansSerif-108"/>
      <path d="M 1.8125 38.625 
L 1.8125 44.484375 
L 10.40625 44.484375 
L 10.40625 57.078125 
L 17.390625 57.078125 
L 17.390625 44.484375 
L 31.5 44.484375 
L 31.5 38.625 
L 17.390625 38.625 
L 17.390625 14.015625 
Q 17.390625 5.328125 22.796875 5.328125 
Q 27 5.328125 31.59375 8.59375 
L 33.203125 2.6875 
Q 26.125 -1.125 18.40625 -1.125 
Q 10.203125 -1.125 10.203125 11.71875 
L 10.203125 38.625 
z
" id="CMUSansSerif-116"/>
      <path d="M 8.015625 12.203125 
L 8.015625 44.484375 
L 15.828125 44.484375 
L 15.828125 10.984375 
Q 15.921875 7.46875 17.453125 5.984375 
Q 19 4.5 23.78125 4.5 
Q 28.953125 4.5 32.125 7.25 
Q 35.296875 10.015625 35.6875 13.625 
Q 35.796875 14.59375 35.796875 16.5 
L 35.796875 44.484375 
L 43.609375 44.484375 
L 43.609375 0 
L 35.984375 0 
L 35.984375 4.78125 
Q 29.203125 -1.125 18.5 -1.125 
Q 15.53125 -1.125 13.40625 -0.171875 
Q 11.28125 0.78125 10.234375 2 
Q 9.1875 3.21875 8.640625 5.359375 
Q 8.109375 7.515625 8.0625 8.765625 
Q 8.015625 10.015625 8.015625 12.203125 
z
" id="CMUSansSerif-117"/>
      <path d="M 3.515625 22.125 
Q 3.515625 32.03125 8.71875 38.8125 
Q 13.921875 45.609375 21.296875 45.609375 
Q 28.90625 45.609375 35.796875 40.09375 
L 35.796875 72.21875 
L 43.40625 72.21875 
L 43.40625 0 
L 35.5 0 
L 35.5 5.171875 
Q 29 -1.125 20.703125 -1.125 
Q 13.28125 -1.125 8.390625 5.859375 
Q 3.515625 12.84375 3.515625 22.125 
z
M 11.28125 22.21875 
Q 11.28125 13.328125 15.46875 9.203125 
Q 19.671875 5.078125 24.8125 5.078125 
Q 29 5.078125 32.25 7.9375 
Q 35.5 10.796875 35.5 13.375 
L 35.5 32.515625 
Q 35.5 34.421875 33.40625 36.375 
Q 30.171875 39.359375 25.984375 39.40625 
L 25.78125 39.40625 
Q 23.390625 39.40625 21.046875 38.5 
Q 18.703125 37.59375 16.40625 35.734375 
Q 14.109375 33.890625 12.6875 30.390625 
Q 11.28125 26.90625 11.28125 22.21875 
z
" id="CMUSansSerif-100"/>
      <path id="CMUSansSerif-32"/>
      <path d="M 2.6875 3.421875 
L 3.90625 10.203125 
Q 4.109375 10.109375 5.203125 9.453125 
Q 6.296875 8.796875 6.859375 8.5 
Q 7.421875 8.203125 8.65625 7.59375 
Q 9.90625 6.984375 10.953125 6.640625 
Q 12.015625 6.296875 13.40625 5.90625 
Q 14.796875 5.515625 16.359375 5.34375 
Q 17.921875 5.171875 19.578125 5.171875 
Q 24.5625 5.171875 26.734375 7.296875 
Q 28.90625 9.421875 28.90625 12.015625 
Q 28.90625 14.5 27.09375 16.15625 
Q 25.296875 17.828125 23.296875 18.40625 
Q 22.3125 18.703125 18.84375 19.40625 
Q 15.375 20.125 13.71875 20.609375 
Q 9.625 21.921875 6.46875 25.0625 
Q 3.328125 28.21875 3.328125 32.90625 
Q 3.328125 35.203125 4 37.25 
Q 4.6875 39.3125 6.34375 41.453125 
Q 8.015625 43.609375 11.453125 44.84375 
Q 14.890625 46.09375 19.671875 46.09375 
Q 26.859375 46.09375 34.28125 43.015625 
L 33.203125 36.375 
Q 33.109375 36.46875 32.046875 36.9375 
Q 31 37.40625 30.859375 37.5 
Q 30.71875 37.59375 29.765625 37.984375 
Q 28.8125 38.375 28.4375 38.5 
Q 28.078125 38.625 27.1875 38.96875 
Q 26.3125 39.3125 25.796875 39.359375 
Q 25.296875 39.40625 24.34375 39.640625 
Q 23.390625 39.890625 22.65625 39.9375 
Q 21.921875 39.984375 20.921875 40.03125 
Q 19.921875 40.09375 18.796875 40.09375 
Q 14.203125 40.09375 12.296875 38.234375 
Q 10.40625 36.375 10.40625 33.984375 
Q 10.40625 30.671875 13.0625 29.21875 
Q 15.71875 27.78125 20.5 26.953125 
Q 25.296875 26.125 27.296875 25.203125 
Q 30.90625 23.578125 33.4375 20.375 
Q 35.984375 17.1875 35.984375 12.703125 
Q 35.984375 10.40625 35.296875 8.203125 
Q 34.625 6 32.953125 3.796875 
Q 31.296875 1.609375 27.859375 0.234375 
Q 24.421875 -1.125 19.671875 -1.125 
Q 10.890625 -1.078125 2.6875 3.421875 
z
" id="CMUSansSerif-115"/>
      <path d="M 3.515625 22.3125 
Q 3.515625 31.59375 9.5 38.84375 
Q 15.484375 46.09375 25.484375 46.09375 
Q 30.171875 46.09375 33.265625 45.1875 
Q 36.375 44.28125 41.015625 41.703125 
L 39.796875 35.109375 
Q 34.90625 38.1875 32.328125 38.921875 
Q 29.4375 39.703125 25.390625 39.703125 
Q 18.609375 39.703125 14.9375 34.546875 
Q 11.28125 29.390625 11.28125 22.3125 
Q 11.28125 14.890625 15.1875 10.109375 
Q 19.09375 5.328125 25.296875 5.328125 
Q 33.109375 5.328125 41.015625 10.6875 
L 41.5 4 
Q 33.59375 -1.078125 25.203125 -1.125 
Q 16.015625 -1.125 9.765625 5.734375 
Q 3.515625 12.59375 3.515625 22.3125 
z
" id="CMUSansSerif-99"/>
     </defs>
     <use xlink:href="#CMUSansSerif-65"/>
     <use x="66.699219" xlink:href="#CMUSansSerif-109"/>
     <use x="146.09375" xlink:href="#CMUSansSerif-112"/>
     <use x="197.753906" xlink:href="#CMUSansSerif-108"/>
     <use x="221.630859" xlink:href="#CMUSansSerif-105"/>
     <use x="245.507812" xlink:href="#CMUSansSerif-116"/>
     <use x="281.591797" xlink:href="#CMUSansSerif-117"/>
     <use x="333.251953" xlink:href="#CMUSansSerif-100"/>
     <use x="384.912109" xlink:href="#CMUSansSerif-32"/>
     <use x="418.164062" xlink:href="#CMUSansSerif-100"/>
     <use x="469.824219" xlink:href="#CMUSansSerif-101"/>
     <use x="514.208984" xlink:href="#CMUSansSerif-32"/>
     <use x="547.460938" xlink:href="#CMUSansSerif-108"/>
     <use x="571.337891" xlink:href="#CMUSansSerif-111"/>
     <use x="621.337891" xlink:href="#CMUSansSerif-115"/>
     <use x="659.619141" xlink:href="#CMUSansSerif-32"/>
     <use x="692.871094" xlink:href="#CMUSansSerif-99"/>
     <use x="737.255859" xlink:href="#CMUSansSerif-97"/>
     <use x="785.253906" xlink:href="#CMUSansSerif-109"/>
     <use x="864.648438" xlink:href="#CMUSansSerif-112"/>
     <use x="916.308594" xlink:href="#CMUSansSerif-111"/>
     <use x="966.308594" xlink:href="#CMUSansSerif-115"/>
     <use x="1004.589844" xlink:href="#CMUSansSerif-32"/>
    </g>
    <!--  magnéticos iniciales -->
    <g style="fill:#f4d35e;" transform="translate(137.7 218.16)scale(0.14 -0.14)">
     <defs>
      <path d="M 3.421875 22.609375 
Q 3.421875 32.515625 9.453125 39.296875 
Q 15.484375 46.09375 23.578125 46.09375 
Q 26.5625 46.09375 29.265625 45.140625 
Q 31.984375 44.1875 34.734375 41.984375 
Q 37.5 39.796875 39.296875 35.390625 
Q 41.109375 31 41.40625 24.90625 
L 41.40625 22.015625 
L 10.40625 22.015625 
Q 10.6875 14.5 14.984375 9.78125 
Q 19.28125 5.078125 25.203125 5.078125 
Q 32.8125 5.078125 40.375 10.59375 
L 41.015625 4 
Q 33.40625 -1.078125 25.203125 -1.125 
Q 15.671875 -1.125 9.546875 5.921875 
Q 3.421875 12.984375 3.421875 22.609375 
z
M 10.6875 50.984375 
L 24.03125 64.015625 
L 31.78125 64.015625 
L 16.890625 50.984375 
z
M 10.890625 27.484375 
L 35.6875 27.484375 
Q 35.109375 31.390625 33.546875 34.09375 
Q 31.984375 36.8125 30.03125 37.953125 
Q 28.078125 39.109375 26.53125 39.5 
Q 25 39.890625 23.578125 39.890625 
Q 18.5 39.890625 15.171875 35.984375 
Q 11.859375 32.078125 10.890625 27.484375 
z
" id="CMUSansSerif-233"/>
     </defs>
     <use xlink:href="#CMUSansSerif-32"/>
     <use x="33.251953" xlink:href="#CMUSansSerif-109"/>
     <use x="112.646484" xlink:href="#CMUSansSerif-97"/>
     <use x="160.644531" xlink:href="#CMUSansSerif-103"/>
     <use x="210.644531" xlink:href="#CMUSansSerif-110"/>
     <use x="262.304688" xlink:href="#CMUSansSerif-233"/>
     <use x="306.689453" xlink:href="#CMUSansSerif-116"/>
     <use x="342.773438" xlink:href="#CMUSansSerif-105"/>
     <use x="366.650391" xlink:href="#CMUSansSerif-99"/>
     <use x="411.035156" xlink:href="#CMUSansSerif-111"/>
     <use x="461.035156" xlink:href="#CMUSansSerif-115"/>
     <use x="499.316406" xlink:href="#CMUSansSerif-32"/>
     <use x="532.568359" xlink:href="#CMUSansSerif-105"/>
     <use x="556.445312" xlink:href="#CMUSansSerif-110"/>
     <use x="608.105469" xlink:href="#CMUSansSerif-105"/>
     <use x="631.982422" xlink:href="#CMUSansSerif-99"/>
     <use x="676.367188" xlink:href="#CMUSansSerif-105"/>
     <use x="700.244141" xlink:href="#CMUSansSerif-97"/>
     <use x="748.242188" xlink:href="#CMUSansSerif-108"/>
     <use x="772.119141" xlink:href="#CMUSansSerif-101"/>
     <use x="816.503906" xlink:href="#CMUSansSerif-115"/>
    </g>
   </g>
   <g id="text_16">
    <!-- Amplitud de los campos  -->
    <g style="fill:#8eb8e5;" transform="translate(234.792 88.489375)scale(0.14 -0.14)">
     <use xlink:href="#CMUSansSerif-65"/>
     <use x="66.699219" xlink:href="#CMUSansSerif-109"/>
     <use x="146.09375" xlink:href="#CMUSansSerif-112"/>
     <use x="197.753906" xlink:href="#CMUSansSerif-108"/>
     <use x="221.630859" xlink:href="#CMUSansSerif-105"/>
     <use x="245.507812" xlink:href="#CMUSansSerif-116"/>
     <use x="281.591797" xlink:href="#CMUSansSerif-117"/>
     <use x="333.251953" xlink:href="#CMUSansSerif-100"/>
     <use x="384.912109" xlink:href="#CMUSansSerif-32"/>
     <use x="418.164062" xlink:href="#CMUSansSerif-100"/>
     <use x="469.824219" xlink:href="#CMUSansSerif-101"/>
     <use x="514.208984" xlink:href="#CMUSansSerif-32"/>
     <use x="547.460938" xlink:href="#CMUSansSerif-108"/>
     <use x="571.337891" xlink:href="#CMUSansSerif-111"/>
     <use x="621.337891" xlink:href="#CMUSansSerif-115"/>
     <use x="659.619141" xlink:href="#CMUSansSerif-32"/>
     <use x="692.871094" xlink:href="#CMUSansSerif-99"/>
     <use x="737.255859" xlink:href="#CMUSansSerif-97"/>
     <use x="785.253906" xlink:href="#CMUSansSerif-109"/>
     <use x="864.648438" xlink:href="#CMUSansSerif-112"/>
     <use x="916.308594" xlink:href="#CMUSansSerif-111"/>
     <use x="966.308594" xlink:href="#CMUSansSerif-115"/>
     <use x="1004.589844" xlink:href="#CMUSansSerif-32"/>
    </g>
    <!-- magnéticos para -->
    <g style="fill:#8eb8e5;" transform="translate(234.792 103.349938)scale(0.14 -0.14)">
     <use xlink:href="#CMUSansSerif-109"/>
     <use x="79.394531" xlink:href="#CMUSansSerif-97"/>
     <use x="127.392578" xlink:href="#CMUSansSerif-103"/>
     <use x="177.392578" xlink:href="#CMUSansSerif-110"/>
     <use x="229.052734" xlink:href="#CMUSansSerif-233"/>
     <use x="273.4375" xlink:href="#CMUSansSerif-116"/>
     <use x="309.521484" xlink:href="#CMUSansSerif-105"/>
     <use x="333.398438" xlink:href="#CMUSansSerif-99"/>
     <use x="377.783203" xlink:href="#CMUSansSerif-111"/>
     <use x="427.783203" xlink:href="#CMUSansSerif-115"/>
     <use x="466.064453" xlink:href="#CMUSansSerif-32"/>
     <use x="499.316406" xlink:href="#CMUSansSerif-112"/>
     <use x="550.976562" xlink:href="#CMUSansSerif-97"/>
     <use x="598.974609" xlink:href="#CMUSansSerif-114"/>
     <use x="633.154297" xlink:href="#CMUSansSerif-97"/>
    </g>
    <!-- nuestro sistema -->
    <g style="fill:#8eb8e5;" transform="translate(234.792 118.368)scale(0.14 -0.14)">
     <use xlink:href="#CMUSansSerif-110"/>
     <use x="51.660156" xlink:href="#CMUSansSerif-117"/>
     <use x="103.320312" xlink:href="#CMUSansSerif-101"/>
     <use x="147.705078" xlink:href="#CMUSansSerif-115"/>
     <use x="185.986328" xlink:href="#CMUSansSerif-116"/>
     <use x="222.070312" xlink:href="#CMUSansSerif-114"/>
     <use x="256.25" xlink:href="#CMUSansSerif-111"/>
     <use x="306.25" xlink:href="#CMUSansSerif-32"/>
     <use x="339.501953" xlink:href="#CMUSansSerif-115"/>
     <use x="377.783203" xlink:href="#CMUSansSerif-105"/>
     <use x="401.660156" xlink:href="#CMUSansSerif-115"/>
     <use x="439.941406" xlink:href="#CMUSansSerif-116"/>
     <use x="476.025391" xlink:href="#CMUSansSerif-101"/>
     <use x="520.410156" xlink:href="#CMUSansSerif-109"/>
     <use x="599.804688" xlink:href="#CMUSansSerif-97"/>
    </g>
   </g>
  </g>
 </g>
 <defs>
  <clipPath id="pd4dbe0edff">
   <rect height="332.64" width="334.8" x="54" y="51.84"/>
  </clipPath>
 </defs>
</svg>
