<?xml version="1.0" encoding="UTF-8" standalone="no"?>
<svg
   xmlns:ns1="http://www.iki.fi/pav/software/textext/"
   xmlns:dc="http://purl.org/dc/elements/1.1/"
   xmlns:cc="http://creativecommons.org/ns#"
   xmlns:rdf="http://www.w3.org/1999/02/22-rdf-syntax-ns#"
   xmlns:svg="http://www.w3.org/2000/svg"
   xmlns="http://www.w3.org/2000/svg"
   xmlns:sodipodi="http://sodipodi.sourceforge.net/DTD/sodipodi-0.dtd"
   xmlns:inkscape="http://www.inkscape.org/namespaces/inkscape"
   width="310.56329mm"
   height="188.16785mm"
   viewBox="0 0 310.56329 188.16785"
   version="1.1"
   id="svg8"
   sodipodi:docname="dipole_moment.svg"
   inkscape:version="1.0.2 (1.0.2+r75+1)"
   inkscape:export-filename="/home/peguerosdc/Pictures/precesion.png"
   inkscape:export-xdpi="154.77"
   inkscape:export-ydpi="154.77">
  <defs
     id="defs2">
    <marker
       style="overflow:visible"
       id="Arrow2Lstart"
       refX="0"
       refY="0"
       orient="auto"
       inkscape:stockid="Arrow2Lstart"
       inkscape:isstock="true">
      <path
         transform="matrix(1.1,0,0,1.1,1.1,0)"
         d="M 8.7185878,4.0337352 -2.2072895,0.01601326 8.7185884,-4.0017078 c -1.7454984,2.3720609 -1.7354408,5.6174519 -6e-7,8.035443 z"
         style="fill:#f4d35e;fill-opacity:1;fill-rule:evenodd;stroke:#f4d35e;stroke-width:0.625;stroke-linejoin:round;stroke-opacity:1"
         id="path1138" />
    </marker>
    <linearGradient
       id="linearGradient11952">
      <stop
         id="stop11954"
         offset="0"
         style="stop-color:#ffc017;stop-opacity:1;" />
      <stop
         id="stop11956"
         offset="1"
         style="stop-color:#000000;stop-opacity:1;" />
    </linearGradient>
    <linearGradient
       id="linearGradient10971">
      <stop
         style="stop-color:#1733ff;stop-opacity:1;"
         offset="0"
         id="stop10973" />
      <stop
         style="stop-color:#000000;stop-opacity:1;"
         offset="1"
         id="stop10975" />
    </linearGradient>
  </defs>
  <sodipodi:namedview
     id="base"
     pagecolor="#1b1b1e"
     bordercolor="#666666"
     borderopacity="1.0"
     inkscape:pageopacity="0"
     inkscape:pageshadow="2"
     inkscape:zoom="0.7"
     inkscape:cx="403.38911"
     inkscape:cy="409.69056"
     inkscape:document-units="mm"
     inkscape:current-layer="layer5"
     inkscape:document-rotation="0"
     showgrid="false"
     inkscape:window-width="1920"
     inkscape:window-height="1016"
     inkscape:window-x="0"
     inkscape:window-y="27"
     inkscape:window-maximized="1"
     fit-margin-top="3"
     fit-margin-left="3"
     fit-margin-right="3"
     fit-margin-bottom="3" />
  <metadata
     id="metadata5">
    <rdf:RDF>
      <cc:Work
         rdf:about="">
        <dc:format>image/svg+xml</dc:format>
        <dc:type
           rdf:resource="http://purl.org/dc/dcmitype/StillImage" />
        <dc:title></dc:title>
      </cc:Work>
    </rdf:RDF>
  </metadata>
  <g
     inkscape:groupmode="layer"
     id="layer5"
     inkscape:label="background"
     style="display:none">
    <rect
       style="fill:#1b1b1e;fill-opacity:1;stroke:none;stroke-width:1.8;stroke-miterlimit:3.7;stroke-dasharray:none;stroke-opacity:0.999971"
       id="rect1662"
       width="315.09378"
       height="191.00949"
       x="-1.1570214"
       y="-0.4452709" />
  </g>
  <g
     inkscape:groupmode="layer"
     id="layer4"
     inkscape:label="prece"
     style="display:inline"
     transform="translate(48.118664,-44.1942)"
     sodipodi:insensitive="true">
    <ellipse
       style="fill:none;fill-opacity:1;stroke:#f4d35e;stroke-width:1.8;stroke-miterlimit:3.7;stroke-dasharray:none;stroke-opacity:1"
       id="path1403"
       cx="105.79075"
       cy="64.748177"
       rx="31.773701"
       ry="8.9239283" />
  </g>
  <g
     inkscape:label="field"
     inkscape:groupmode="layer"
     id="layer1"
     style="display:inline"
     transform="translate(48.118664,-44.1942)"
     sodipodi:insensitive="true">
    <path
       style="fill:none;fill-opacity:1;fill-rule:evenodd;stroke:#ffffff;stroke-width:0.529167;stroke-linecap:round;stroke-linejoin:miter;stroke-miterlimit:4;stroke-opacity:1"
       d="m 71.201782,138.23953 c 0,-7.42866 6.126335,-13.40914 13.736177,-13.40914 7.609843,0 13.736177,5.98048 13.736177,13.40914 0,7.42866 -6.126334,13.40913 -13.736177,13.40913 -7.609842,0 -13.736177,-5.98047 -13.736177,-13.40913 z"
       id="rect2176" />
    <path
       style="fill:none;fill-opacity:1;fill-rule:evenodd;stroke:#ffffff;stroke-width:0.529166;stroke-linecap:round;stroke-linejoin:miter;stroke-miterlimit:4;stroke-opacity:1"
       d="m 52.675531,138.23953 c 0,-13.15516 10.848917,-23.74577 24.324928,-23.74577 13.47601,0 24.324931,10.59061 24.324931,23.74577 0,13.15516 -10.848921,23.74578 -24.324931,23.74578 -13.476011,0 -24.324928,-10.59062 -24.324928,-23.74578 z"
       id="rect3149" />
    <path
       style="fill:none;fill-opacity:1;fill-rule:evenodd;stroke:#ffffff;stroke-width:0.529167;stroke-linecap:round;stroke-linejoin:miter;stroke-miterlimit:4;stroke-opacity:1"
       d="m 32.340443,138.23954 c 0,-19.28755 15.906223,-34.81506 35.66418,-34.81506 19.757957,0 35.664177,15.52751 35.664177,34.81506 0,19.28753 -15.90622,34.81504 -35.664177,34.81504 -19.757957,0 -35.66418,-15.52751 -35.66418,-34.81504 z"
       id="rect4120" />
    <path
       style="fill:none;fill-opacity:1;fill-rule:evenodd;stroke:#ffffff;stroke-width:0.529167;stroke-linecap:round;stroke-linejoin:miter;stroke-miterlimit:4;stroke-opacity:1"
       d="m -7.9820043,138.23951 c 0,-30.50572 25.1577283,-55.064467 56.4074683,-55.064467 31.249739,0 56.407466,24.558747 56.407466,55.064467 0,30.50571 -25.157727,55.06446 -56.407466,55.06446 -31.24974,0 -56.4074683,-24.55875 -56.4074683,-55.06446 z"
       id="rect5091" />
    <path
       style="fill:none;fill-opacity:1;fill-rule:evenodd;stroke:#ffffff;stroke-width:0.529166;stroke-linecap:round;stroke-linejoin:miter;stroke-miterlimit:4;stroke-opacity:1"
       d="m -44.854081,138.23952 c 0,-40.716451 33.578405,-73.495387 75.287911,-73.495387 41.709506,0 75.28791,32.778936 75.28791,73.495387 0,40.71644 -33.578404,73.49537 -75.28791,73.49537 -41.709506,0 -75.287911,-32.77893 -75.287911,-73.49537 z"
       id="rect6062" />
    <path
       style="fill:none;fill-opacity:1;fill-rule:evenodd;stroke:#ffffff;stroke-width:0.529167;stroke-linecap:round;stroke-linejoin:miter;stroke-miterlimit:4;stroke-opacity:1"
       d="m 143.1242,138.23953 c 0,-7.42866 -6.12634,-13.40914 -13.73618,-13.40914 -7.60984,0 -13.73618,5.98048 -13.73618,13.40914 0,7.42866 6.12634,13.40913 13.73618,13.40913 7.60984,0 13.73618,-5.98047 13.73618,-13.40913 z"
       id="rect6074" />
    <path
       style="fill:none;fill-opacity:1;fill-rule:evenodd;stroke:#ffffff;stroke-width:0.529166;stroke-linecap:round;stroke-linejoin:miter;stroke-miterlimit:4;stroke-opacity:1"
       d="m 161.65045,138.23953 c 0,-13.15516 -10.84892,-23.74577 -24.32493,-23.74577 -13.47601,0 -24.32493,10.59061 -24.32493,23.74577 0,13.15516 10.84892,23.74578 24.32493,23.74578 13.47601,0 24.32493,-10.59062 24.32493,-23.74578 z"
       id="rect6076" />
    <path
       style="fill:none;fill-opacity:1;fill-rule:evenodd;stroke:#ffffff;stroke-width:0.529167;stroke-linecap:round;stroke-linejoin:miter;stroke-miterlimit:4;stroke-opacity:1"
       d="m 181.98553,138.23954 c 0,-19.28755 -15.90623,-34.81506 -35.66418,-34.81506 -19.75796,0 -35.66418,15.52751 -35.66418,34.81506 0,19.28753 15.90622,34.81504 35.66418,34.81504 19.75795,0 35.66418,-15.52751 35.66418,-34.81504 z"
       id="rect6078" />
    <path
       style="fill:none;fill-opacity:1;fill-rule:evenodd;stroke:#ffffff;stroke-width:0.529167;stroke-linecap:round;stroke-linejoin:miter;stroke-miterlimit:4;stroke-opacity:1"
       d="m 222.30798,138.23951 c 0,-30.50572 -25.15772,-55.064467 -56.40746,-55.064467 -31.24974,0 -56.40747,24.558747 -56.40747,55.064467 0,30.50571 25.15773,55.06446 56.40747,55.06446 31.24974,0 56.40746,-24.55875 56.40746,-55.06446 z"
       id="rect6080" />
    <path
       style="fill:none;fill-opacity:1;fill-rule:evenodd;stroke:#ffffff;stroke-width:0.529166;stroke-linecap:round;stroke-linejoin:miter;stroke-miterlimit:4;stroke-opacity:1"
       d="m 259.18005,138.23952 c 0,-40.716451 -33.5784,-73.495387 -75.28791,-73.495387 -41.70951,0 -75.28791,32.778936 -75.28791,73.495387 0,40.71644 33.5784,73.49537 75.28791,73.49537 41.70951,0 75.28791,-32.77893 75.28791,-73.49537 z"
       id="rect6082" />
    <path
       style="fill:none;fill-rule:evenodd;stroke:#ffffff;stroke-width:0.529167;stroke-linecap:butt;stroke-linejoin:miter;stroke-miterlimit:4;stroke-opacity:1"
       d="M 107.39913,231.73226 106.9163,44.811837"
       id="path7053"
       sodipodi:nodetypes="cc" />
    <path
       style="fill:#ffffff;fill-opacity:1;fill-rule:evenodd;stroke:#ffffff;stroke-width:0.0707516;stroke-linecap:round;stroke-linejoin:miter;stroke-miterlimit:4;stroke-opacity:1"
       d="m 107.17113,85.196317 1.74857,3.028623 h -3.49715 z"
       id="path8024" />
    <path
       style="fill:#ffffff;fill-opacity:1;fill-rule:evenodd;stroke:#ffffff;stroke-width:0.0707516;stroke-linecap:round;stroke-linejoin:miter;stroke-miterlimit:4;stroke-opacity:1"
       d="m 107.17113,185.73799 1.74857,3.02862 h -3.49715 z"
       id="path8995" />
    <path
       style="fill:#ffffff;fill-opacity:1;fill-rule:evenodd;stroke:#ffffff;stroke-width:0.0707516;stroke-linecap:round;stroke-linejoin:miter;stroke-miterlimit:4;stroke-opacity:1"
       d="m 71.175468,139.02494 1.748576,-3.02862 h -3.497153 z"
       id="path9019" />
    <path
       style="fill:#ffffff;fill-opacity:1;fill-rule:evenodd;stroke:#ffffff;stroke-width:0.0707516;stroke-linecap:round;stroke-linejoin:miter;stroke-miterlimit:4;stroke-opacity:1"
       d="m 52.654635,139.02494 1.748576,-3.02862 h -3.497153 z"
       id="path9990" />
    <path
       style="fill:#ffffff;fill-opacity:1;fill-rule:evenodd;stroke:#ffffff;stroke-width:0.0707516;stroke-linecap:round;stroke-linejoin:miter;stroke-miterlimit:4;stroke-opacity:1"
       d="m 32.344187,139.02494 1.748576,-3.02862 H 30.59561 Z"
       id="path9992" />
    <path
       style="fill:#ffffff;fill-opacity:1;fill-rule:evenodd;stroke:#ffffff;stroke-width:0.0707516;stroke-linecap:round;stroke-linejoin:miter;stroke-miterlimit:4;stroke-opacity:1"
       d="m 142.94001,139.02494 -1.74857,-3.02862 h 3.49715 z"
       id="path9994" />
    <path
       style="fill:#ffffff;fill-opacity:1;fill-rule:evenodd;stroke:#ffffff;stroke-width:0.0707516;stroke-linecap:round;stroke-linejoin:miter;stroke-miterlimit:4;stroke-opacity:1"
       d="m 161.46085,139.02494 -1.74857,-3.02862 h 3.49715 z"
       id="path9996" />
    <path
       style="fill:#ffffff;fill-opacity:1;fill-rule:evenodd;stroke:#ffffff;stroke-width:0.0707516;stroke-linecap:round;stroke-linejoin:miter;stroke-miterlimit:4;stroke-opacity:1"
       d="m 181.77129,139.02494 -1.74857,-3.02862 h 3.49715 z"
       id="path9998" />
    <path
       style="display:inline;fill:none;fill-rule:evenodd;stroke:#8eb8e5;stroke-width:2.12242;stroke-linecap:butt;stroke-linejoin:miter;stroke-miterlimit:4;stroke-dasharray:none;stroke-opacity:1"
       d="M 74.41717,218.74192 136.09864,68.865768"
       id="path7053-5"
       sodipodi:nodetypes="cc" />
    <path
       style="display:inline;fill:#8eb8e5;fill-opacity:1;fill-rule:evenodd;stroke:none;stroke-width:0.127351;stroke-linecap:round;stroke-linejoin:miter;stroke-miterlimit:4;stroke-opacity:1"
       d="m 137.4414,64.928934 0.27413,7.090142 -4.90153,-1.591541 z"
       id="path9998-3"
       inkscape:transform-center-x="1.0176579"
       inkscape:transform-center-y="-0.32714936" />
    <path
       style="display:inline;fill:#f4d35e;fill-opacity:1;fill-rule:evenodd;stroke:none;stroke-width:0.0956336;stroke-linecap:round;stroke-linejoin:miter;stroke-miterlimit:4;stroke-opacity:0.999971"
       d="m 108.78235,55.902948 4.01692,-2.491824 0.14952,4.724685 z"
       id="path8024-6" />
    <path
       style="display:inline;fill:#f4d35e;fill-opacity:1;fill-rule:evenodd;stroke:none;stroke-width:0.0956336;stroke-linecap:round;stroke-linejoin:miter;stroke-miterlimit:4;stroke-opacity:1"
       d="m 105.42902,73.758229 -4.274,2.019368 0.38818,-4.711087 z"
       id="path8024-6-2" />
    <text
       xml:space="preserve"
       style="font-style:normal;font-weight:normal;font-size:10.5833px;line-height:1.25;font-family:sans-serif;fill:#000000;fill-opacity:1;stroke:none;stroke-width:0.264583"
       x="165.81076"
       y="224.3871"
       id="text1505"><tspan
         sodipodi:role="line"
         id="tspan1503"
         x="165.81076"
         y="224.3871"
         style="font-style:normal;font-variant:normal;font-weight:normal;font-stretch:normal;font-family:'CMU Sans Serif';-inkscape-font-specification:'CMU Sans Serif';fill:#ffffff;stroke-width:0.264583">Campo Magnético</tspan></text>
    <g
       transform="matrix(1.6334878,0,0,1.6334878,205.44609,182.35527)"
       ns1:version="1.2.0"
       ns1:texconverter="pdflatex"
       ns1:pdfconverter="inkscape"
       ns1:text="$ \vec{B} $"
       ns1:preamble="/home/peguerosdc/.config/inkscape/extensions/textext/default_packages.tex"
       ns1:scale="12.594236341458295"
       ns1:alignment="middle center"
       ns1:jacobian_sqrt="4.44297"
       id="g1562"
       style="fill:#ffffff">
      <defs
         id="id-556670ec-4491-4160-84bb-ce9cf8a5d9b6">
        <g
           id="id-f71ee9aa-4789-47fe-a2e9-9e5aa3a89adc">
          <symbol
             overflow="visible"
             id="id-2cedb599-9c01-446a-8d50-8f21ed42c166">
            <path
               style="stroke:none;stroke-width:0"
               d=""
               id="id-87618437-3698-445a-87a5-68c5358c2fbd" />
          </symbol>
          <symbol
             overflow="visible"
             id="id-e2ee82f3-1682-4864-b248-07414181cb4f">
            <path
               style="stroke:none;stroke-width:0"
               d="m 5.359375,-5.9375 c -0.140625,0.140625 -0.46875,0.421875 -0.46875,0.59375 0,0.09375 0.09375,0.203125 0.1875,0.203125 0.09375,0 0.140625,-0.078125 0.203125,-0.140625 C 5.390625,-5.421875 5.625,-5.703125 6.0625,-5.921875 6.125,-5.96875 6.234375,-6.015625 6.234375,-6.125 6.234375,-6.234375 6.15625,-6.28125 6.09375,-6.328125 5.875,-6.484375 5.765625,-6.65625 5.6875,-6.890625 5.65625,-6.984375 5.625,-7.125 5.484375,-7.125 c -0.140625,0 -0.203125,0.140625 -0.203125,0.21875 0,0.046875 0.078125,0.359375 0.234375,0.578125 H 2.15625 c -0.15625,0 -0.34375,0 -0.34375,0.203125 0,0.1875 0.1875,0.1875 0.34375,0.1875 z m 0,0"
               id="id-72d2fb7b-5ffc-4f82-9fbb-eb7f98b3a9f6" />
          </symbol>
          <symbol
             overflow="visible"
             id="id-9004babc-7f90-44bb-a8c8-a44bc2eae854">
            <path
               style="stroke:none;stroke-width:0"
               d="M 1.59375,-0.78125 C 1.5,-0.390625 1.46875,-0.3125 0.6875,-0.3125 c -0.171875,0 -0.265625,0 -0.265625,0.203125 C 0.421875,0 0.515625,0 0.6875,0 H 4.25 C 5.828125,0 7,-1.171875 7,-2.15625 7,-2.875 6.421875,-3.453125 5.453125,-3.5625 6.484375,-3.75 7.53125,-4.484375 7.53125,-5.4375 c 0,-0.734375 -0.65625,-1.375 -1.84375,-1.375 H 2.328125 c -0.1875,0 -0.28125,0 -0.28125,0.203125 0,0.109375 0.09375,0.109375 0.28125,0.109375 0.015625,0 0.203125,0 0.375,0.015625 0.171875,0.03125 0.265625,0.03125 0.265625,0.171875 0,0.03125 -0.015625,0.0625 -0.03125,0.1875 z m 1.5,-2.875 0.625,-2.46875 C 3.8125,-6.46875 3.828125,-6.5 4.25,-6.5 h 1.296875 c 0.875,0 1.078125,0.59375 1.078125,1.03125 0,0.875 -0.859375,1.8125 -2.0625,1.8125 z m -0.4375,3.34375 c -0.140625,0 -0.15625,0 -0.21875,0 -0.109375,-0.015625 -0.140625,-0.03125 -0.140625,-0.109375 0,-0.03125 0,-0.046875 0.0625,-0.21875 l 0.6875,-2.78125 h 1.875 c 0.953125,0 1.15625,0.734375 1.15625,1.15625 C 6.078125,-1.28125 5.1875,-0.3125 4,-0.3125 Z m 0,0"
               id="id-0bfa01d5-e08b-48df-bca9-b29a49198f9d" />
          </symbol>
        </g>
      </defs>
      <g
         id="id-fd54605d-8178-4f8a-9232-c79c3b5157c0"
         transform="translate(-149.134,-125.121)"
         style="fill:#ffffff">
        <g
           style="fill:#ffffff;fill-opacity:1"
           id="id-a168bdb4-d16a-4b4a-8def-0854d06866da">
          <g
             transform="translate(150.314,132.246)"
             id="g1554"
             style="fill:#ffffff">
            <path
               style="fill:#ffffff;stroke:none;stroke-width:0"
               d="m 5.359375,-5.9375 c -0.140625,0.140625 -0.46875,0.421875 -0.46875,0.59375 0,0.09375 0.09375,0.203125 0.1875,0.203125 0.09375,0 0.140625,-0.078125 0.203125,-0.140625 C 5.390625,-5.421875 5.625,-5.703125 6.0625,-5.921875 6.125,-5.96875 6.234375,-6.015625 6.234375,-6.125 6.234375,-6.234375 6.15625,-6.28125 6.09375,-6.328125 5.875,-6.484375 5.765625,-6.65625 5.6875,-6.890625 5.65625,-6.984375 5.625,-7.125 5.484375,-7.125 c -0.140625,0 -0.203125,0.140625 -0.203125,0.21875 0,0.046875 0.078125,0.359375 0.234375,0.578125 H 2.15625 c -0.15625,0 -0.34375,0 -0.34375,0.203125 0,0.1875 0.1875,0.1875 0.34375,0.1875 z m 0,0"
               id="id-c9d82e00-100f-45d9-8b82-f08b6da6838b" />
          </g>
        </g>
        <g
           style="fill:#ffffff;fill-opacity:1"
           id="id-c696daa4-ace2-4916-a9e6-e013aa320d52">
          <g
             transform="translate(148.712,134.765)"
             id="g1558"
             style="fill:#ffffff">
            <path
               style="fill:#ffffff;stroke:none;stroke-width:0"
               d="M 1.59375,-0.78125 C 1.5,-0.390625 1.46875,-0.3125 0.6875,-0.3125 c -0.171875,0 -0.265625,0 -0.265625,0.203125 C 0.421875,0 0.515625,0 0.6875,0 H 4.25 C 5.828125,0 7,-1.171875 7,-2.15625 7,-2.875 6.421875,-3.453125 5.453125,-3.5625 6.484375,-3.75 7.53125,-4.484375 7.53125,-5.4375 c 0,-0.734375 -0.65625,-1.375 -1.84375,-1.375 H 2.328125 c -0.1875,0 -0.28125,0 -0.28125,0.203125 0,0.109375 0.09375,0.109375 0.28125,0.109375 0.015625,0 0.203125,0 0.375,0.015625 0.171875,0.03125 0.265625,0.03125 0.265625,0.171875 0,0.03125 -0.015625,0.0625 -0.03125,0.1875 z m 1.5,-2.875 0.625,-2.46875 C 3.8125,-6.46875 3.828125,-6.5 4.25,-6.5 h 1.296875 c 0.875,0 1.078125,0.59375 1.078125,1.03125 0,0.875 -0.859375,1.8125 -2.0625,1.8125 z m -0.4375,3.34375 c -0.140625,0 -0.15625,0 -0.21875,0 -0.109375,-0.015625 -0.140625,-0.03125 -0.140625,-0.109375 0,-0.03125 0,-0.046875 0.0625,-0.21875 l 0.6875,-2.78125 h 1.875 c 0.953125,0 1.15625,0.734375 1.15625,1.15625 C 6.078125,-1.28125 5.1875,-0.3125 4,-0.3125 Z m 0,0"
               id="id-91dd4ea3-a1ac-49ab-8f37-9598d2a2cbfb" />
          </g>
        </g>
      </g>
    </g>
    <text
       xml:space="preserve"
       style="font-style:normal;font-weight:normal;font-size:10.5833px;line-height:1.25;font-family:sans-serif;display:inline;fill:#8eb8e5;fill-opacity:1;stroke:none;stroke-width:0.264583"
       x="50.476845"
       y="224.65028"
       id="text1505-5"><tspan
         sodipodi:role="line"
         id="tspan1503-6"
         x="50.476845"
         y="224.65028"
         style="font-style:normal;font-variant:normal;font-weight:normal;font-stretch:normal;font-family:'CMU Sans Serif';-inkscape-font-specification:'CMU Sans Serif';fill:#8eb8e5;fill-opacity:1;stroke-width:0.264583">Spin</tspan></text>
    <text
       xml:space="preserve"
       style="font-style:normal;font-weight:normal;font-size:10.5833px;line-height:1.25;font-family:sans-serif;display:inline;fill:#f4d35e;fill-opacity:1;stroke:none;stroke-width:0.264583"
       x="128.91235"
       y="53.833862"
       id="text1505-9"><tspan
         sodipodi:role="line"
         id="tspan1503-8"
         x="128.91235"
         y="53.833862"
         style="font-style:normal;font-variant:normal;font-weight:normal;font-stretch:normal;font-family:'CMU Sans Serif';-inkscape-font-specification:'CMU Sans Serif';fill:#f4d35e;fill-opacity:1;stroke-width:0.264583">Precesión</tspan></text>
  </g>
  <g
     inkscape:groupmode="layer"
     id="layer3"
     inkscape:label="muon"
     style="display:inline"
     sodipodi:insensitive="true"
     transform="translate(48.118664,-44.1942)">
    <circle
       style="fill:#8eb8e5;fill-opacity:1;stroke:none;stroke-width:0.253;stroke-opacity:1"
       id="path974"
       cx="106.70172"
       cy="138.57901"
       r="26.018728" />
    <g
       transform="matrix(4.4429701,0,0,4.4429701,95.944843,126.45943)"
       ns1:version="1.2.0"
       ns1:texconverter="pdflatex"
       ns1:pdfconverter="inkscape"
       ns1:text="$ \mu $"
       ns1:preamble="/home/peguerosdc/.config/inkscape/extensions/textext/default_packages.tex"
       ns1:scale="12.594236341458295"
       ns1:alignment="middle center"
       ns1:jacobian_sqrt="4.44297"
       id="g1020"
       style="fill:#000000">
      <defs
         id="id-6544f9dc-3274-418d-b696-bfd36a1c89b9">
        <g
           id="id-cead7965-fabe-45df-bbdc-37aa24798487">
          <symbol
             overflow="visible"
             id="id-6e1196bd-c13f-461a-90cd-2849865ebae8">
            <path
               style="stroke:none;stroke-width:0"
               d=""
               id="id-d97a0828-0092-4b2d-bc99-61b7df6df65c" />
          </symbol>
          <symbol
             overflow="visible"
             id="id-c3f5105c-903a-4d4d-b543-8c328b15ab0d">
            <path
               style="stroke:none;stroke-width:0"
               d="m 2.296875,-3.5 c 0.0625,-0.203125 0.15625,-0.59375 0.15625,-0.640625 0,-0.171875 -0.125,-0.265625 -0.296875,-0.265625 -0.015625,0 -0.296875,0.015625 -0.390625,0.359375 l -1.4375,5.765625 c -0.03125,0.125 -0.03125,0.140625 -0.03125,0.171875 0,0.140625 0.109375,0.265625 0.28125,0.265625 0.203125,0 0.328125,-0.1875 0.34375,-0.21875 C 0.96875,1.859375 1.09375,1.328125 1.46875,-0.203125 1.796875,0.0625 2.25,0.109375 2.4375,0.109375 c 0.703125,0 1.09375,-0.453125 1.328125,-0.734375 0.09375,0.453125 0.46875,0.734375 0.90625,0.734375 0.34375,0 0.578125,-0.234375 0.734375,-0.546875 0.171875,-0.359375 0.296875,-0.96875 0.296875,-0.984375 0,-0.109375 -0.09375,-0.109375 -0.125,-0.109375 -0.09375,0 -0.109375,0.046875 -0.140625,0.1875 -0.15625,0.640625 -0.34375,1.234375 -0.75,1.234375 -0.265625,0 -0.296875,-0.265625 -0.296875,-0.453125 0,-0.21875 0.109375,-0.6875 0.1875,-1.046875 L 4.859375,-2.6875 C 4.890625,-2.828125 5,-3.203125 5.03125,-3.359375 5.078125,-3.59375 5.1875,-3.96875 5.1875,-4.03125 c 0,-0.171875 -0.140625,-0.265625 -0.296875,-0.265625 -0.046875,0 -0.3125,0.015625 -0.390625,0.34375 l -0.46875,1.875 c -0.109375,0.5 -0.21875,0.90625 -0.25,1.015625 -0.015625,0.046875 -0.484375,0.953125 -1.296875,0.953125 -0.5,0 -0.734375,-0.328125 -0.734375,-0.875 0,-0.28125 0.0625,-0.5625 0.140625,-0.84375 z m 0,0"
               id="id-22eb150a-57a1-41b5-aa01-990d6657e16d" />
          </symbol>
        </g>
      </defs>
      <g
         id="id-dec51e1d-f6d4-43f3-879d-2f5bab9142c2"
         transform="translate(-149.009,-130.359)"
         style="fill:#000000">
        <g
           style="fill:#000000;fill-opacity:1"
           id="id-cc766cd4-d107-4e1b-92cc-06d877aa8ec6">
          <g
             transform="translate(148.712,134.765)"
             id="g1016"
             style="fill:#000000">
            <path
               style="fill:#000000;stroke:none;stroke-width:0"
               d="m 2.296875,-3.5 c 0.0625,-0.203125 0.15625,-0.59375 0.15625,-0.640625 0,-0.171875 -0.125,-0.265625 -0.296875,-0.265625 -0.015625,0 -0.296875,0.015625 -0.390625,0.359375 l -1.4375,5.765625 c -0.03125,0.125 -0.03125,0.140625 -0.03125,0.171875 0,0.140625 0.109375,0.265625 0.28125,0.265625 0.203125,0 0.328125,-0.1875 0.34375,-0.21875 C 0.96875,1.859375 1.09375,1.328125 1.46875,-0.203125 1.796875,0.0625 2.25,0.109375 2.4375,0.109375 c 0.703125,0 1.09375,-0.453125 1.328125,-0.734375 0.09375,0.453125 0.46875,0.734375 0.90625,0.734375 0.34375,0 0.578125,-0.234375 0.734375,-0.546875 0.171875,-0.359375 0.296875,-0.96875 0.296875,-0.984375 0,-0.109375 -0.09375,-0.109375 -0.125,-0.109375 -0.09375,0 -0.109375,0.046875 -0.140625,0.1875 -0.15625,0.640625 -0.34375,1.234375 -0.75,1.234375 -0.265625,0 -0.296875,-0.265625 -0.296875,-0.453125 0,-0.21875 0.109375,-0.6875 0.1875,-1.046875 L 4.859375,-2.6875 C 4.890625,-2.828125 5,-3.203125 5.03125,-3.359375 5.078125,-3.59375 5.1875,-3.96875 5.1875,-4.03125 c 0,-0.171875 -0.140625,-0.265625 -0.296875,-0.265625 -0.046875,0 -0.3125,0.015625 -0.390625,0.34375 l -0.46875,1.875 c -0.109375,0.5 -0.21875,0.90625 -0.25,1.015625 -0.015625,0.046875 -0.484375,0.953125 -1.296875,0.953125 -0.5,0 -0.734375,-0.328125 -0.734375,-0.875 0,-0.28125 0.0625,-0.5625 0.140625,-0.84375 z m 0,0"
               id="id-79bc96d0-ca33-4c81-a7c4-051013c0e11b" />
          </g>
        </g>
      </g>
    </g>
  </g>
</svg>
